<?xml version="1.0" encoding="UTF-8" standalone="no"?>
<svg xmlns:dc="http://purl.org/dc/elements/1.1/" xmlns:cc="http://creativecommons.org/ns#" xmlns:rdf="http://www.w3.org/1999/02/22-rdf-syntax-ns#" xmlns:svg="http://www.w3.org/2000/svg" xmlns="http://www.w3.org/2000/svg" xmlns:sodipodi="http://sodipodi.sourceforge.net/DTD/sodipodi-0.dtd" xmlns:inkscape="http://www.inkscape.org/namespaces/inkscape" version="1.1" id="Layer_1" x="0px" y="0px" viewBox="0 0 319.98999 78.654999" xml:space="preserve" sodipodi:docname="JuiceFS_logo_h.svg" width="319.98999" height="78.654999" inkscape:version="1.0.2 (e86c8708, 2021-01-15)"><metadata id="metadata31"><rdf:RDF><cc:Work rdf:about=""><dc:format>image/svg+xml</dc:format><dc:type rdf:resource="http://purl.org/dc/dcmitype/StillImage"/><dc:title/></cc:Work></rdf:RDF></metadata><defs id="defs29"/><sodipodi:namedview pagecolor="#ffffff" bordercolor="#666666" borderopacity="1" objecttolerance="10" gridtolerance="10" guidetolerance="10" inkscape:pageopacity="0" inkscape:pageshadow="2" inkscape:window-width="1440" inkscape:window-height="783" id="namedview27" showgrid="false" fit-margin-top="10" fit-margin-bottom="10" fit-margin-left="10" fit-margin-right="10" lock-margins="false" inkscape:zoom="0.8359833" inkscape:cx="115.74438" inkscape:cy="109.17597" inkscape:window-x="0" inkscape:window-y="25" inkscape:window-maximized="1" inkscape:current-layer="Layer_1"/>
<style type="text/css" id="style10">
	.st0{fill-rule:evenodd;clip-rule:evenodd;fill:#0ABD59;}
	.st1{fill-rule:evenodd;clip-rule:evenodd;fill:#A5D9AB;}
</style>

<g id="g117" style="display:none" transform="translate(-140.97,-180.72)"><path id="JuiceFS_10_" class="st0" d="m 262.97,387.49 h 4.29 v 15.04 c 0,2.08 -0.68,3.72 -2.03,4.94 -1.35,1.21 -3.06,1.82 -5.13,1.82 -2.24,0 -4.02,-0.55 -5.33,-1.64 -1.31,-1.09 -1.94,-2.7 -1.89,-4.83 l 0.03,-0.09 h 4.19 c 0,1.13 0.27,1.96 0.81,2.47 0.54,0.52 1.27,0.77 2.18,0.77 0.8,0 1.47,-0.31 2.03,-0.92 0.56,-0.61 0.83,-1.46 0.83,-2.53 v -15.03 z m 17.65,19.18 c -0.49,0.84 -1.12,1.48 -1.87,1.93 -0.76,0.45 -1.63,0.68 -2.61,0.68 -1.68,0 -3,-0.54 -3.95,-1.62 -0.95,-1.08 -1.42,-2.75 -1.42,-5.02 V 393 h 4.29 v 9.67 c 0,1.16 0.2,1.99 0.59,2.5 0.39,0.51 0.97,0.76 1.74,0.76 0.69,0 1.28,-0.11 1.77,-0.33 0.49,-0.22 0.9,-0.55 1.21,-0.98 v -11.61 h 4.31 v 15.97 H 281 Z m 11.83,2.3 h -4.31 V 393 h 4.31 z m 0,-19.79 h -4.31 v -3.23 h 4.31 z m 10.24,16.8 c 0.77,0 1.38,-0.22 1.84,-0.67 0.46,-0.45 0.69,-1.05 0.69,-1.79 h 3.91 l 0.04,0.09 c 0.04,1.61 -0.57,2.96 -1.82,4.05 -1.25,1.09 -2.81,1.63 -4.67,1.63 -2.38,0 -4.22,-0.75 -5.5,-2.26 -1.29,-1.51 -1.93,-3.44 -1.93,-5.8 v -0.44 c 0,-2.35 0.64,-4.28 1.93,-5.8 1.28,-1.51 3.12,-2.27 5.5,-2.27 1.97,0 3.55,0.56 4.76,1.68 1.21,1.12 1.79,2.6 1.75,4.43 l -0.03,0.09 h -3.93 c 0,-0.83 -0.23,-1.51 -0.68,-2.06 -0.45,-0.55 -1.08,-0.82 -1.87,-0.82 -1.14,0 -1.95,0.44 -2.41,1.33 -0.47,0.89 -0.7,2.03 -0.7,3.42 v 0.44 c 0,1.43 0.23,2.57 0.7,3.45 0.46,0.86 1.27,1.3 2.42,1.3 z m 16.01,3.3 c -2.3,0 -4.14,-0.74 -5.52,-2.21 -1.38,-1.48 -2.07,-3.35 -2.07,-5.62 v -0.59 c 0,-2.37 0.65,-4.32 1.96,-5.86 1.31,-1.54 3.05,-2.3 5.25,-2.29 2.15,0 3.83,0.65 5.02,1.95 1.19,1.3 1.79,3.05 1.79,5.27 v 2.35 h -9.53 l -0.03,0.09 c 0.08,1.05 0.43,1.92 1.06,2.6 0.62,0.68 1.47,1.02 2.55,1.02 0.95,0 1.75,-0.1 2.38,-0.29 0.63,-0.19 1.32,-0.49 2.07,-0.91 l 1.17,2.66 c -0.65,0.53 -1.5,0.97 -2.55,1.32 -1.09,0.34 -2.26,0.51 -3.55,0.51 z m -0.38,-13.25 c -0.8,0 -1.43,0.3 -1.89,0.91 -0.46,0.61 -0.75,1.41 -0.86,2.41 l 0.04,0.07 h 5.28 v -0.38 c 0,-0.91 -0.21,-1.65 -0.64,-2.19 -0.42,-0.55 -1.06,-0.82 -1.93,-0.82 z m 22.98,4.02 h -9 v 8.93 h -4.31 v -21.49 h 14.82 v 3.32 H 332.3 v 5.92 h 9 z m 15.73,3.32 c 0,-0.83 -0.29,-1.49 -0.88,-1.99 -0.59,-0.5 -1.61,-0.97 -3.08,-1.42 -2.56,-0.74 -4.49,-1.61 -5.8,-2.63 -1.31,-1.02 -1.96,-2.4 -1.96,-4.16 0,-1.76 0.75,-3.2 2.25,-4.32 1.5,-1.12 3.42,-1.67 5.75,-1.67 2.36,0 4.28,0.63 5.77,1.88 1.49,1.25 2.2,2.8 2.15,4.64 l -0.03,0.09 h -4.18 c 0,-0.99 -0.33,-1.8 -1,-2.41 -0.66,-0.61 -1.6,-0.92 -2.8,-0.92 -1.15,0 -2.04,0.26 -2.67,0.77 -0.63,0.51 -0.94,1.17 -0.94,1.96 0,0.73 0.34,1.33 1.01,1.79 0.67,0.47 1.84,0.96 3.49,1.48 2.37,0.66 4.17,1.53 5.39,2.61 1.22,1.08 1.83,2.5 1.83,4.26 0,1.84 -0.73,3.29 -2.18,4.35 -1.45,1.06 -3.37,1.59 -5.75,1.59 -2.34,0 -4.38,-0.6 -6.12,-1.81 -1.74,-1.21 -2.59,-2.89 -2.54,-5.07 l 0.03,-0.09 h 4.19 c 0,1.28 0.39,2.22 1.17,2.81 0.78,0.6 1.87,0.89 3.27,0.89 1.17,0 2.07,-0.24 2.69,-0.72 0.63,-0.46 0.94,-1.11 0.94,-1.91 z"/><g id="g16">
	<path id="Fill-1_13_" class="st1" d="m 316.3,364.26 c 12.28,12.46 32.26,12.46 44.55,0 12.28,-12.46 12.28,-32.74 0,-45.2 l -0.44,-0.44 c -2.41,-2.45 -5.57,-3.67 -8.73,-3.67 -3.16,0 -6.32,1.22 -8.74,3.67 l -4.41,4.47 c 0.23,0.23 1.82,1.77 3.6,3.57 l 5.61,5.7 c 5.06,5.13 5.06,13.48 0,18.61 -5.06,5.13 -13.28,5.13 -18.34,0 l -31.88,-32.35 c -2.41,-2.45 -5.57,-3.67 -8.73,-3.67 -3.16,0 -6.32,1.22 -8.74,3.67 l -4.41,4.47 c 0.24,0.22 40.66,41.17 40.66,41.17 z"/>
	<path class="st0" d="m 343.05,318.52 c 2.21,-2.21 5.27,-3.58 8.64,-3.58 h -26.75 c -3.55,0 -5.75,1.46 -6.73,2.29 -0.67,0.57 -1.32,1.18 -1.95,1.82 l -31.44,31.91 c -5.06,5.13 -13.29,5.13 -18.34,0 -5.06,-5.13 -5.06,-13.48 0,-18.61 l 13.69,-13.83 c 2.21,-2.21 5.27,-3.58 8.64,-3.58 h -24.43 c -3.37,0 -7.41,0.75 -11,4.11 -12.28,12.46 -12.28,32.74 0,45.2 12.28,12.46 32.26,12.46 44.55,0 l 31.44,-31.91 z" id="path14"/>
</g></g>
<g id="g24" transform="translate(-140.97,-180.72)">
	<g id="g21">
		<path id="Fill-1_8_" class="st1" d="m 223.1,240.03 c 12.28,12.46 32.26,12.46 44.55,0 12.28,-12.46 12.28,-32.74 0,-45.2 l -0.44,-0.44 c -2.41,-2.45 -5.57,-3.67 -8.73,-3.67 -3.16,0 -6.32,1.22 -8.74,3.67 l -4.41,4.47 c 0.23,0.23 1.82,1.77 3.6,3.57 l 5.61,5.7 c 5.06,5.13 5.06,13.48 0,18.61 -5.06,5.13 -13.28,5.13 -18.34,0 l -31.88,-32.35 c -2.41,-2.45 -5.57,-3.67 -8.73,-3.67 -3.16,0 -6.32,1.22 -8.74,3.67 l -4.41,4.47 c 0.24,0.23 40.66,41.17 40.66,41.17 z"/>
		<path class="st0" d="m 249.85,194.3 c 2.21,-2.21 5.27,-3.58 8.64,-3.58 h -26.75 c -3.55,0 -5.75,1.46 -6.73,2.29 -0.67,0.57 -1.32,1.18 -1.95,1.82 l -31.44,31.91 c -5.06,5.13 -13.29,5.13 -18.34,0 -5.06,-5.13 -5.06,-13.48 0,-18.61 l 13.69,-13.83 c 2.21,-2.21 5.27,-3.58 8.64,-3.58 h -24.43 c -3.37,0 -7.41,0.75 -11,4.11 -12.28,12.46 -12.28,32.74 0,45.2 12.28,12.46 32.26,12.46 44.55,0 l 31.44,-31.91 z" id="path19"/>
	</g>
	<path id="JuiceFS_5_" class="st0" d="m 303.44,205.93 h 6.44 v 22.55 c 0,3.11 -1.01,5.58 -3.04,7.4 -2.03,1.82 -4.59,2.73 -7.69,2.73 -3.36,0 -6.03,-0.82 -7.99,-2.46 -1.96,-1.64 -2.91,-4.05 -2.83,-7.24 l 0.04,-0.13 h 6.29 c 0,1.7 0.41,2.93 1.22,3.71 0.81,0.77 1.9,1.16 3.28,1.16 1.2,0 2.21,-0.46 3.04,-1.38 0.83,-0.92 1.25,-2.19 1.25,-3.8 v -22.54 z m 26.47,28.77 c -0.74,1.25 -1.67,2.22 -2.81,2.9 -1.14,0.68 -2.44,1.02 -3.92,1.02 -2.52,0 -4.5,-0.81 -5.92,-2.42 -1.42,-1.62 -2.14,-4.13 -2.14,-7.54 V 214.2 h 6.44 v 14.5 c 0,1.74 0.3,2.99 0.89,3.75 0.59,0.76 1.46,1.14 2.61,1.14 1.03,0 1.92,-0.17 2.66,-0.5 0.74,-0.33 1.34,-0.82 1.81,-1.47 V 214.2 H 336 v 23.95 h -5.51 z m 17.75,3.45 H 341.2 V 214.2 h 6.46 z m 0,-29.68 h -6.46 v -4.85 h 6.46 z m 15.36,25.19 c 1.15,0 2.07,-0.34 2.77,-1.01 0.69,-0.67 1.04,-1.57 1.04,-2.69 h 5.86 l 0.07,0.13 c 0.06,2.42 -0.85,4.44 -2.73,6.07 -1.88,1.63 -4.22,2.45 -7,2.45 -3.57,0 -6.32,-1.13 -8.25,-3.39 -1.93,-2.26 -2.9,-5.16 -2.9,-8.7 v -0.66 c 0,-3.53 0.96,-6.43 2.89,-8.7 1.93,-2.27 4.67,-3.41 8.24,-3.41 2.95,0 5.33,0.84 7.14,2.52 1.81,1.68 2.68,3.89 2.62,6.64 l -0.04,0.13 h -5.89 c 0,-1.24 -0.34,-2.27 -1.02,-3.09 -0.68,-0.82 -1.62,-1.23 -2.81,-1.23 -1.71,0 -2.92,0.66 -3.62,1.99 -0.7,1.33 -1.05,3.04 -1.05,5.13 v 0.66 c 0,2.14 0.35,3.86 1.05,5.17 0.69,1.33 1.9,1.99 3.63,1.99 z m 24.01,4.95 c -3.45,0 -6.21,-1.11 -8.28,-3.32 -2.07,-2.21 -3.1,-5.02 -3.1,-8.43 v -0.89 c 0,-3.56 0.98,-6.48 2.93,-8.79 1.95,-2.3 4.58,-3.44 7.87,-3.43 3.23,0 5.74,0.97 7.52,2.92 1.79,1.95 2.68,4.58 2.68,7.9 v 3.52 h -14.3 l -0.04,0.13 c 0.12,1.58 0.65,2.88 1.58,3.89 0.94,1.02 2.21,1.53 3.82,1.53 1.43,0 2.62,-0.14 3.56,-0.43 0.94,-0.29 1.98,-0.74 3.1,-1.36 l 1.75,3.98 c -0.97,0.8 -2.25,1.46 -3.83,1.98 -1.57,0.54 -3.33,0.8 -5.26,0.8 z m -0.58,-19.87 c -1.2,0 -2.14,0.46 -2.83,1.37 -0.69,0.91 -1.12,2.12 -1.28,3.61 l 0.07,0.11 h 7.92 v -0.58 c 0,-1.37 -0.32,-2.47 -0.96,-3.29 -0.65,-0.81 -1.62,-1.22 -2.92,-1.22 z m 34.46,6.02 h -13.5 v 13.39 h -6.46 v -32.22 h 22.22 v 4.98 h -15.76 v 8.87 h 13.5 z m 23.59,4.98 c 0,-1.24 -0.44,-2.24 -1.32,-2.99 -0.88,-0.75 -2.42,-1.46 -4.61,-2.12 -3.84,-1.11 -6.73,-2.42 -8.7,-3.94 -1.96,-1.52 -2.94,-3.6 -2.94,-6.24 0,-2.64 1.12,-4.8 3.37,-6.47 2.25,-1.67 5.12,-2.51 8.62,-2.51 3.54,0 6.43,0.94 8.65,2.82 2.22,1.88 3.3,4.2 3.23,6.96 l -0.04,0.13 h -6.26 c 0,-1.49 -0.5,-2.7 -1.49,-3.62 -1,-0.92 -2.39,-1.38 -4.19,-1.38 -1.73,0 -3.06,0.38 -4.01,1.15 -0.94,0.77 -1.42,1.75 -1.42,2.94 0,1.09 0.51,1.99 1.52,2.69 1.01,0.7 2.76,1.44 5.23,2.22 3.56,0.99 6.25,2.29 8.08,3.92 1.83,1.63 2.74,3.75 2.74,6.4 0,2.76 -1.09,4.94 -3.26,6.53 -2.17,1.59 -5.05,2.39 -8.62,2.39 -3.51,0 -6.57,-0.9 -9.18,-2.71 -2.61,-1.81 -3.88,-4.34 -3.81,-7.6 l 0.04,-0.13 h 6.29 c 0,1.92 0.59,3.32 1.76,4.22 1.17,0.89 2.81,1.34 4.9,1.34 1.76,0 3.1,-0.36 4.03,-1.08 0.93,-0.72 1.39,-1.71 1.39,-2.92 z"/>
</g>
</svg>
