<?xml version="1.0" encoding="UTF-8"?>
<svg width="256px" height="64px" viewBox="0 0 256 64" version="1.1" xmlns="http://www.w3.org/2000/svg" xmlns:xlink="http://www.w3.org/1999/xlink">
    <!-- Generator: Sketch 51.1 (57501) - http://www.bohemiancoding.com/sketch -->
    <title>Logo_juiceFS_h</title>
    <desc>Created with Sketch.</desc>
    <defs>
        <polygon id="path-1" points="0 0.237090381 85.4111218 0.237090381 85.4111218 46.832424 0 46.832424"></polygon>
    </defs>
    <g id="Logo_juiceFS_h" stroke="none" stroke-width="1" fill="none" fill-rule="evenodd">
        <g id="logo_graphic" transform="translate(8.000000, 8.000000)">
            <g id="logo">
                <path d="M92.6521474,3.59343158 L92.3053526,3.24121089 C88.4736218,-0.646550998 82.2614423,-0.646550998 78.4297115,3.24121089 L74.9300321,6.79236298 C75.115609,6.97221343 76.3761859,8.19799347 77.7864423,9.62899165 L82.2450962,14.1532225 C86.2620833,18.2292907 86.2620833,24.8609917 82.2450962,28.9367347 C78.2284295,33.0128029 71.6928526,33.0128029 67.6758654,28.9367347 L44.22875,5.14508893 C44.22875,5.14508893 42.9290705,3.90890163 41.2194551,2.62067804 C37.3338782,-0.264409437 32.628109,-0.969176044 27.0902885,4.65041887 L25.0082372,6.76309256 L57.2688141,39.4968508 C67.0242628,49.3954555 82.8966987,49.3954555 92.6521474,39.4968508 C102.407276,29.5982461 102.407276,13.4923615 92.6521474,3.59343158" id="Fill-1" fill="#91D2BD"></path>
                <g id="Group-5" transform="translate(0.000000, 0.088136)">
                    <mask id="mask-2" fill="white">
                        <use xlink:href="#path-1"></use>
                    </mask>
                    <g id="Clip-4"></g>
                    <path d="M85.2268269,0.237090381 L66.7431731,0.237090381 L66.7380449,0.237090381 L64.1624038,0.237090381 C61.3415705,0.237090381 59.5934936,1.39684936 58.8197756,2.05868603 C58.2877244,2.51432886 57.7700962,2.99631506 57.2688141,3.5052951 L32.2925321,28.8485982 C28.2758654,32.9246664 21.7399679,32.9246664 17.7229808,28.8485982 C13.7063141,24.7728552 13.7066346,18.140829 17.7229808,14.065086 C17.7367628,14.0514265 17.7508654,14.0387426 17.7643269,14.0254083 L25.0079167,6.67528131 C29.8665705,1.74549256 33.2652885,0.170744102 36.0909295,0.336284574 C35.9059936,0.302786207 35.71625,0.269613067 35.5165705,0.237090381 L16.0550321,0.237090381 C13.3816346,0.237090381 10.1678526,0.829653721 7.31657051,3.5052951 C-2.43887821,13.4038998 -2.43887821,29.5101096 7.31657051,39.4087143 C17.0716987,49.3069938 32.9444551,49.3069938 42.6995833,39.4087143 L78.429391,3.15307441 C80.3566346,1.1974853 82.8854808,0.229284936 85.4111218,0.241643557 C85.2922115,0.236765154 85.2268269,0.237090381 85.2268269,0.237090381" id="Fill-3" fill="#0E9155" mask="url(#mask-2)"></path>
                </g>
            </g>
        </g>
        <path d="M129.113281,20.40625 L134.228516,20.40625 L134.228516,38.3183594 C134.228516,40.791028 133.42286,42.7509693 131.811523,44.1982422 C130.200187,45.645515 128.164075,46.3691406 125.703125,46.3691406 C123.031237,46.3691406 120.916023,45.7187565 119.357422,44.4179688 C117.79882,43.117181 117.048828,41.2011845 117.107422,38.6699219 L117.142578,38.5644531 L122.134766,38.5644531 C122.134766,39.9121161 122.457028,40.8935516 123.101562,41.5087891 C123.746097,42.1240265 124.613276,42.4316406 125.703125,42.4316406 C126.652348,42.4316406 127.458005,42.0654333 128.120117,41.3330078 C128.78223,40.6005823 129.113281,39.5957095 129.113281,38.3183594 L129.113281,20.40625 Z M150.136719,43.2578125 C149.550778,44.2539112 148.806645,45.0214817 147.904297,45.5605469 C147.001949,46.0996121 145.96485,46.3691406 144.792969,46.3691406 C142.789052,46.3691406 141.221685,45.7275455 140.09082,44.4443359 C138.959955,43.1611264 138.394531,41.1660292 138.394531,38.4589844 L138.394531,26.9804688 L143.509766,26.9804688 L143.509766,38.4941406 C143.509766,39.87696 143.744138,40.8701142 144.212891,41.4736328 C144.681643,42.0771515 145.373042,42.3789062 146.287109,42.3789062 C147.107426,42.3789062 147.810544,42.2470716 148.396484,41.9833984 C148.982425,41.7197252 149.462889,41.3300807 149.837891,40.8144531 L149.837891,26.9804688 L154.970703,26.9804688 L154.970703,46 L150.59375,46 L150.136719,43.2578125 Z M164.234375,46 L159.101562,46 L159.101562,26.9804688 L164.234375,26.9804688 L164.234375,46 Z M164.234375,22.4277344 L159.101562,22.4277344 L159.101562,18.578125 L164.234375,18.578125 L164.234375,22.4277344 Z M176.433594,42.4316406 C177.347661,42.4316406 178.080075,42.1650417 178.630859,41.6318359 C179.181643,41.0986301 179.457031,40.3867232 179.457031,39.4960938 L184.115234,39.4960938 L184.167969,39.6015625 C184.214844,41.5234471 183.491218,43.1318295 181.99707,44.4267578 C180.502922,45.7216862 178.648449,46.3691406 176.433594,46.3691406 C173.597642,46.3691406 171.412117,45.4726652 169.876953,43.6796875 C168.341789,41.8867098 167.574219,39.5839984 167.574219,36.7714844 L167.574219,36.2441406 C167.574219,33.4433454 168.33886,31.140634 169.868164,29.3359375 C171.397469,27.531241 173.580064,26.6289062 176.416016,26.6289062 C178.759777,26.6289062 180.649407,27.2968683 182.084961,28.6328125 C183.520515,29.9687567 184.214844,31.7265516 184.167969,33.90625 L184.132812,34.0117188 L179.457031,34.0117188 C179.457031,33.0273388 179.187503,32.2099642 178.648438,31.5595703 C178.109372,30.9091764 177.365239,30.5839844 176.416016,30.5839844 C175.056634,30.5839844 174.098636,31.1113229 173.541992,32.1660156 C172.985349,33.2207084 172.707031,34.5800698 172.707031,36.2441406 L172.707031,36.7714844 C172.707031,38.4707116 172.985349,39.838862 173.541992,40.8759766 C174.098636,41.9130911 175.062493,42.4316406 176.433594,42.4316406 Z M195.505859,46.3691406 C192.763658,46.3691406 190.572274,45.4902432 188.931641,43.7324219 C187.291007,41.9746006 186.470703,39.742201 186.470703,37.0351562 L186.470703,36.3320312 C186.470703,33.5077984 187.247063,31.1816498 188.799805,29.3535156 C190.352547,27.5253815 192.435534,26.6171874 195.048828,26.6289062 C197.615247,26.6289062 199.607415,27.402336 201.025391,28.9492188 C202.443366,30.4961015 203.152344,32.5878774 203.152344,35.2246094 L203.152344,38.0195312 L191.796875,38.0195312 L191.761719,38.125 C191.855469,39.3789125 192.27441,40.4101522 193.018555,41.21875 C193.762699,42.0273478 194.773431,42.4316406 196.050781,42.4316406 C197.187506,42.4316406 198.130856,42.317384 198.880859,42.0888672 C199.630863,41.8603504 200.451167,41.5000025 201.341797,41.0078125 L202.730469,44.171875 C201.957027,44.8046907 200.943366,45.3290995 199.689453,45.7451172 C198.435541,46.1611349 197.041023,46.3691406 195.505859,46.3691406 Z M195.048828,30.5839844 C194.099605,30.5839844 193.349612,30.947262 192.798828,31.6738281 C192.248044,32.4003943 191.908204,33.3554628 191.779297,34.5390625 L191.832031,34.6269531 L198.125,34.6269531 L198.125,34.1699219 C198.125,33.0800727 197.87012,32.2099642 197.360352,31.5595703 C196.850583,30.9091764 196.080083,30.5839844 195.048828,30.5839844 Z M222.417969,35.3652344 L211.695312,35.3652344 L211.695312,46 L206.5625,46 L206.5625,20.40625 L224.210938,20.40625 L224.210938,24.3613281 L211.695312,24.3613281 L211.695312,31.4101562 L222.417969,31.4101562 L222.417969,35.3652344 Z M241.15625,39.3203125 C241.15625,38.3359326 240.807621,37.5449249 240.110352,36.9472656 C239.413082,36.3496064 238.191415,35.787112 236.445312,35.2597656 C233.398422,34.380855 231.095711,33.3378967 229.537109,32.1308594 C227.978508,30.9238221 227.199219,29.2714949 227.199219,27.1738281 C227.199219,25.0761614 228.092765,23.3623113 229.879883,22.0322266 C231.667001,20.7021418 233.949205,20.0371094 236.726562,20.0371094 C239.539077,20.0371094 241.830069,20.7841722 243.599609,22.2783203 C245.369149,23.7724684 246.22461,25.6152234 246.166016,27.8066406 L246.130859,27.9121094 L241.15625,27.9121094 C241.15625,26.7285097 240.760746,25.7705115 239.969727,25.0380859 C239.178707,24.3056604 238.068367,23.9394531 236.638672,23.9394531 C235.267571,23.9394531 234.207035,24.2441376 233.457031,24.8535156 C232.707027,25.4628937 232.332031,26.2421828 232.332031,27.1914062 C232.332031,28.0585981 232.733394,28.770505 233.536133,29.3271484 C234.338871,29.8837918 235.7246,30.4726531 237.693359,31.09375 C240.517592,31.8789102 242.656243,32.9160092 244.109375,34.2050781 C245.562507,35.4941471 246.289063,37.1874895 246.289063,39.2851562 C246.289063,41.4765735 245.424813,43.2050718 243.696289,44.4707031 C241.967765,45.7363345 239.685561,46.3691406 236.849609,46.3691406 C234.060533,46.3691406 231.628917,45.6513744 229.554688,44.2158203 C227.480458,42.7802663 226.472656,40.7675911 226.53125,38.1777344 L226.566406,38.0722656 L231.558594,38.0722656 C231.558594,39.5957107 232.024409,40.7119105 232.956055,41.4208984 C233.8877,42.1298864 235.185539,42.484375 236.849609,42.484375 C238.244148,42.484375 239.310543,42.1972685 240.048828,41.6230469 C240.787113,41.0488253 241.15625,40.2812548 241.15625,39.3203125 Z" id="JuiceFS" fill="#0D9155"></path>
    </g>
</svg>