<svg height="78.654999" viewBox="0 0 319.98999 78.654999" width="319.98999" xmlns="http://www.w3.org/2000/svg"><g clip-rule="evenodd" fill-rule="evenodd" transform="translate(-140.97 -180.72)"><path d="m223.1 240.03c12.28 12.46 32.26 12.46 44.55 0 12.28-12.46 12.28-32.74 0-45.2l-.44-.44c-2.41-2.45-5.57-3.67-8.73-3.67s-6.32 1.22-8.74 3.67l-4.41 4.47c.23.23 1.82 1.77 3.6 3.57l5.61 5.7c5.06 5.13 5.06 13.48 0 18.61s-13.28 5.13-18.34 0l-31.88-32.35c-2.41-2.45-5.57-3.67-8.73-3.67s-6.32 1.22-8.74 3.67l-4.41 4.47c.24.23 40.66 41.17 40.66 41.17z" fill="#a5d9ab"/><g fill="#0abd59"><path d="m249.85 194.3c2.21-2.21 5.27-3.58 8.64-3.58h-26.75c-3.55 0-5.75 1.46-6.73 2.29-.67.57-1.32 1.18-1.95 1.82l-31.44 31.91c-5.06 5.13-13.29 5.13-18.34 0-5.06-5.13-5.06-13.48 0-18.61l13.69-13.83c2.21-2.21 5.27-3.58 8.64-3.58h-24.43c-3.37 0-7.41.75-11 4.11-12.28 12.46-12.28 32.74 0 45.2s32.26 12.46 44.55 0l31.44-31.91z"/><path d="m303.44 205.93h6.44v22.55c0 3.11-1.01 5.58-3.04 7.4s-4.59 2.73-7.69 2.73c-3.36 0-6.03-.82-7.99-2.46s-2.91-4.05-2.83-7.24l.04-.13h6.29c0 1.7.41 2.93 1.22 3.71.81.77 1.9 1.16 3.28 1.16 1.2 0 2.21-.46 3.04-1.38s1.25-2.19 1.25-3.8v-22.54zm26.47 28.77c-.74 1.25-1.67 2.22-2.81 2.9s-2.44 1.02-3.92 1.02c-2.52 0-4.5-.81-5.92-2.42-1.42-1.62-2.14-4.13-2.14-7.54v-14.46h6.44v14.5c0 1.74.3 2.99.89 3.75s1.46 1.14 2.61 1.14c1.03 0 1.92-.17 2.66-.5s1.34-.82 1.81-1.47v-17.42h6.47v23.95h-5.51zm17.75 3.45h-6.46v-23.95h6.46zm0-29.68h-6.46v-4.85h6.46zm15.36 25.19c1.15 0 2.07-.34 2.77-1.01.69-.67 1.04-1.57 1.04-2.69h5.86l.07.13c.06 2.42-.85 4.44-2.73 6.07s-4.22 2.45-7 2.45c-3.57 0-6.32-1.13-8.25-3.39s-2.9-5.16-2.9-8.7v-.66c0-3.53.96-6.43 2.89-8.7s4.67-3.41 8.24-3.41c2.95 0 5.33.84 7.14 2.52s2.68 3.89 2.62 6.64l-.04.13h-5.89c0-1.24-.34-2.27-1.02-3.09s-1.62-1.23-2.81-1.23c-1.71 0-2.92.66-3.62 1.99s-1.05 3.04-1.05 5.13v.66c0 2.14.35 3.86 1.05 5.17.69 1.33 1.9 1.99 3.63 1.99zm24.01 4.95c-3.45 0-6.21-1.11-8.28-3.32s-3.1-5.02-3.1-8.43v-.89c0-3.56.98-6.48 2.93-8.79 1.95-2.3 4.58-3.44 7.87-3.43 3.23 0 5.74.97 7.52 2.92 1.79 1.95 2.68 4.58 2.68 7.9v3.52h-14.3l-.04.13c.12 1.58.65 2.88 1.58 3.89.94 1.02 2.21 1.53 3.82 1.53 1.43 0 2.62-.14 3.56-.43s1.98-.74 3.1-1.36l1.75 3.98c-.97.8-2.25 1.46-3.83 1.98-1.57.54-3.33.8-5.26.8zm-.58-19.87c-1.2 0-2.14.46-2.83 1.37s-1.12 2.12-1.28 3.61l.07.11h7.92v-.58c0-1.37-.32-2.47-.96-3.29-.65-.81-1.62-1.22-2.92-1.22zm34.46 6.02h-13.5v13.39h-6.46v-32.22h22.22v4.98h-15.76v8.87h13.5zm23.59 4.98c0-1.24-.44-2.24-1.32-2.99s-2.42-1.46-4.61-2.12c-3.84-1.11-6.73-2.42-8.7-3.94-1.96-1.52-2.94-3.6-2.94-6.24s1.12-4.8 3.37-6.47 5.12-2.51 8.62-2.51c3.54 0 6.43.94 8.65 2.82s3.3 4.2 3.23 6.96l-.04.13h-6.26c0-1.49-.5-2.7-1.49-3.62-1-.92-2.39-1.38-4.19-1.38-1.73 0-3.06.38-4.01 1.15-.94.77-1.42 1.75-1.42 2.94 0 1.09.51 1.99 1.52 2.69s2.76 1.44 5.23 2.22c3.56.99 6.25 2.29 8.08 3.92s2.74 3.75 2.74 6.4c0 2.76-1.09 4.94-3.26 6.53s-5.05 2.39-8.62 2.39c-3.51 0-6.57-.9-9.18-2.71s-3.88-4.34-3.81-7.6l.04-.13h6.29c0 1.92.59 3.32 1.76 4.22 1.17.89 2.81 1.34 4.9 1.34 1.76 0 3.1-.36 4.03-1.08s1.39-1.71 1.39-2.92z"/></g></g></svg>
