<svg version="1.1" viewBox="0.0 0.0 600.0 371.0" fill="none" stroke="none" stroke-linecap="square" stroke-miterlimit="10" width="600" height="371" xmlns:xlink="http://www.w3.org/1999/xlink" xmlns="http://www.w3.org/2000/svg"><path fill="#ffffff" d="M0 0L600.0 0L600.0 371.0L0 371.0L0 0Z" fill-rule="nonzero"/><path stroke="#333333" stroke-width="1.0" stroke-linecap="butt" d="M84.5 332.5L581.5 332.5" fill-rule="nonzero"/><path stroke="#cccccc" stroke-width="1.0" stroke-linecap="butt" d="M84.5 251.5L581.5 251.5" fill-rule="nonzero"/><path stroke="#cccccc" stroke-width="1.0" stroke-linecap="butt" d="M84.5 169.5L581.5 169.5" fill-rule="nonzero"/><path stroke="#cccccc" stroke-width="1.0" stroke-linecap="butt" d="M84.5 88.5L581.5 88.5" fill-rule="nonzero"/><path stroke="#000000" stroke-width="1.0" stroke-linecap="butt" d="M84.5 332.5L84.5 88.5" fill-rule="nonzero"/><clipPath id="id_0"><path d="M84.55 88.28333L581.45 88.28333L581.45 332.45L84.55 332.45L84.55 88.28333Z" clip-rule="nonzero"/></clipPath><path stroke="#000000" stroke-width="2.0" stroke-linecap="butt" stroke-opacity="0.0" clip-path="url(#id_0)" d="M149.0 332.0L126.0 332.0L126.0 306.0C126.0 304.89542 126.89543 304.0 128.0 304.0L147.0 304.0C148.10457 304.0 149.0 304.89542 149.0 306.0Z" fill-rule="nonzero"/><path fill="#4285f4" clip-path="url(#id_0)" d="M149.0 332.0L126.0 332.0L126.0 306.0C126.0 304.89542 126.89543 304.0 128.0 304.0L147.0 304.0C148.10457 304.0 149.0 304.89542 149.0 306.0Z" fill-rule="nonzero"/><path stroke="#000000" stroke-width="2.0" stroke-linecap="butt" stroke-opacity="0.0" clip-path="url(#id_0)" d="M263.0 332.0L240.0 332.0L240.0 329.0C240.0 327.89542 240.89543 327.0 242.0 327.0L261.0 327.0C262.10458 327.0 263.0 327.89542 263.0 329.0Z" fill-rule="nonzero"/><path fill="#4285f4" clip-path="url(#id_0)" d="M263.0 332.0L240.0 332.0L240.0 329.0C240.0 327.89542 240.89543 327.0 242.0 327.0L261.0 327.0C262.10458 327.0 263.0 327.89542 263.0 329.0Z" fill-rule="nonzero"/><path stroke="#000000" stroke-width="2.0" stroke-linecap="butt" stroke-opacity="0.0" clip-path="url(#id_0)" d="M377.0 332.0L354.0 332.0L354.0 292.0C354.0 290.89542 354.89542 290.0 356.0 290.0L375.0 290.0C376.10458 290.0 377.0 290.89542 377.0 292.0Z" fill-rule="nonzero"/><path fill="#4285f4" clip-path="url(#id_0)" d="M377.0 332.0L354.0 332.0L354.0 292.0C354.0 290.89542 354.89542 290.0 356.0 290.0L375.0 290.0C376.10458 290.0 377.0 290.89542 377.0 292.0Z" fill-rule="nonzero"/><path stroke="#000000" stroke-width="2.0" stroke-linecap="butt" stroke-opacity="0.0" clip-path="url(#id_0)" d="M491.0 332.0L468.0 332.0L468.0 326.0C468.0 324.89542 468.89542 324.0 470.0 324.0L489.0 324.0C490.10458 324.0 491.0 324.89542 491.0 326.0Z" fill-rule="nonzero"/><path fill="#4285f4" clip-path="url(#id_0)" d="M491.0 332.0L468.0 332.0L468.0 326.0C468.0 324.89542 468.89542 324.0 470.0 324.0L489.0 324.0C490.10458 324.0 491.0 324.89542 491.0 326.0Z" fill-rule="nonzero"/><path stroke="#000000" stroke-width="2.0" stroke-linecap="butt" stroke-opacity="0.0" clip-path="url(#id_0)" d="M174.0 332.0L151.0 332.0L151.0 326.0C151.0 324.89542 151.89543 324.0 153.0 324.0L172.0 324.0C173.10457 324.0 174.0 324.89542 174.0 326.0Z" fill-rule="nonzero"/><path fill="#ff9900" clip-path="url(#id_0)" d="M174.0 332.0L151.0 332.0L151.0 326.0C151.0 324.89542 151.89543 324.0 153.0 324.0L172.0 324.0C173.10457 324.0 174.0 324.89542 174.0 326.0Z" fill-rule="nonzero"/><path stroke="#000000" stroke-width="2.0" stroke-linecap="butt" stroke-opacity="0.0" clip-path="url(#id_0)" d="M288.0 332.0L265.0 332.0L265.0 326.0C265.0 324.89542 265.89542 324.0 267.0 324.0L286.0 324.0C287.10458 324.0 288.0 324.89542 288.0 326.0Z" fill-rule="nonzero"/><path fill="#ff9900" clip-path="url(#id_0)" d="M288.0 332.0L265.0 332.0L265.0 326.0C265.0 324.89542 265.89542 324.0 267.0 324.0L286.0 324.0C287.10458 324.0 288.0 324.89542 288.0 326.0Z" fill-rule="nonzero"/><path stroke="#000000" stroke-width="2.0" stroke-linecap="butt" stroke-opacity="0.0" clip-path="url(#id_0)" d="M402.0 332.0L379.0 332.0L379.0 326.0C379.0 324.89542 379.89542 324.0 381.0 324.0L400.0 324.0C401.10458 324.0 402.0 324.89542 402.0 326.0Z" fill-rule="nonzero"/><path fill="#ff9900" clip-path="url(#id_0)" d="M402.0 332.0L379.0 332.0L379.0 326.0C379.0 324.89542 379.89542 324.0 381.0 324.0L400.0 324.0C401.10458 324.0 402.0 324.89542 402.0 326.0Z" fill-rule="nonzero"/><path stroke="#000000" stroke-width="2.0" stroke-linecap="butt" stroke-opacity="0.0" clip-path="url(#id_0)" d="M516.0 332.0L493.0 332.0L493.0 326.0C493.0 324.89542 493.89542 324.0 495.0 324.0L514.0 324.0C515.10455 324.0 516.0 324.89542 516.0 326.0Z" fill-rule="nonzero"/><path fill="#ff9900" clip-path="url(#id_0)" d="M516.0 332.0L493.0 332.0L493.0 326.0C493.0 324.89542 493.89542 324.0 495.0 324.0L514.0 324.0C515.10455 324.0 516.0 324.89542 516.0 326.0Z" fill-rule="nonzero"/><path stroke="#000000" stroke-width="2.0" stroke-linecap="butt" stroke-opacity="0.0" clip-path="url(#id_0)" d="M199.0 332.0L176.0 332.0L176.0 288.0C176.0 286.89542 176.89543 286.0 178.0 286.0L197.0 286.0C198.10457 286.0 199.0 286.89542 199.0 288.0Z" fill-rule="nonzero"/><path fill="#93c47d" clip-path="url(#id_0)" d="M199.0 332.0L176.0 332.0L176.0 288.0C176.0 286.89542 176.89543 286.0 178.0 286.0L197.0 286.0C198.10457 286.0 199.0 286.89542 199.0 288.0Z" fill-rule="nonzero"/><path stroke="#000000" stroke-width="2.0" stroke-linecap="butt" stroke-opacity="0.0" clip-path="url(#id_0)" d="M313.0 332.0L290.0 332.0L290.0 256.0C290.0 254.89543 290.89542 254.0 292.0 254.0L311.0 254.0C312.10458 254.0 313.0 254.89543 313.0 256.0Z" fill-rule="nonzero"/><path fill="#93c47d" clip-path="url(#id_0)" d="M313.0 332.0L290.0 332.0L290.0 256.0C290.0 254.89543 290.89542 254.0 292.0 254.0L311.0 254.0C312.10458 254.0 313.0 254.89543 313.0 256.0Z" fill-rule="nonzero"/><path stroke="#000000" stroke-width="2.0" stroke-linecap="butt" stroke-opacity="0.0" clip-path="url(#id_0)" d="M427.0 332.0L404.0 332.0L404.0 131.0C404.0 129.89543 404.89542 129.0 406.0 129.0L425.0 129.0C426.10458 129.0 427.0 129.89543 427.0 131.0Z" fill-rule="nonzero"/><path fill="#93c47d" clip-path="url(#id_0)" d="M427.0 332.0L404.0 332.0L404.0 131.0C404.0 129.89543 404.89542 129.0 406.0 129.0L425.0 129.0C426.10458 129.0 427.0 129.89543 427.0 131.0Z" fill-rule="nonzero"/><path stroke="#000000" stroke-width="2.0" stroke-linecap="butt" stroke-opacity="0.0" clip-path="url(#id_0)" d="M541.0 332.0L518.0 332.0L518.0 116.0C518.0 114.89543 518.89545 114.0 520.0 114.0L539.0 114.0C540.10455 114.0 541.0 114.89543 541.0 116.0Z" fill-rule="nonzero"/><path fill="#93c47d" clip-path="url(#id_0)" d="M541.0 332.0L518.0 332.0L518.0 116.0C518.0 114.89543 518.89545 114.0 520.0 114.0L539.0 114.0C540.10455 114.0 541.0 114.89543 541.0 116.0Z" fill-rule="nonzero"/><path fill="#000000" d="M29.550013 264.2573L21.971888 264.2573L21.971888 267.08542L20.956263 267.08542L20.956263 260.27292L21.971888 260.27292L21.971888 263.11667L29.550013 263.11667L29.550013 264.2573ZM29.550013 259.5698L20.956263 259.5698L20.956263 258.52292L24.034388 258.52292Q23.190638 257.78854 23.190638 256.66354Q23.190638 255.96042 23.471888 255.46042Q23.737513 254.9448 24.221888 254.72604Q24.690638 254.5073 25.612513 254.5073L29.550013 254.5073L29.550013 255.55417L25.612513 255.55417Q24.815638 255.55417 24.456263 255.89792Q24.096888 256.24167 24.096888 256.86667Q24.096888 257.33542 24.346888 257.7573Q24.581263 258.16354 25.003138 258.35104Q25.409388 258.52292 26.143763 258.52292L29.550013 258.52292L29.550013 259.5698ZM29.550013 252.58542L23.331263 252.58542L23.331263 251.6323L24.268763 251.6323Q23.612513 251.27292 23.409388 250.97604Q23.190638 250.66354 23.190638 250.28854Q23.190638 249.7573 23.518763 249.21042L24.503138 249.5698Q24.268763 249.96042 24.268763 250.33542Q24.268763 250.6948 24.487513 250.97604Q24.690638 251.24167 25.065638 251.35104Q25.628138 251.53854 26.284388 251.53854L29.550013 251.53854L29.550013 252.58542ZM26.440638 248.96042Q24.706263 248.96042 23.878138 248.0073Q23.190638 247.21042 23.190638 246.05417Q23.190638 244.77292 24.034388 243.96042Q24.862513 243.1323 26.346888 243.1323Q27.550013 243.1323 28.237513 243.49167Q28.925013 243.85104 29.315638 244.55417Q29.690638 245.24167 29.690638 246.05417Q29.690638 247.35104 28.862513 248.16354Q28.018763 248.96042 26.440638 248.96042ZM26.440638 247.8823Q27.628138 247.8823 28.221888 247.36667Q28.815638 246.83542 28.815638 246.05417Q28.815638 245.2573 28.221888 244.74167Q27.628138 244.22604 26.409388 244.22604Q25.253138 244.22604 24.659388 244.7573Q24.065638 245.27292 24.065638 246.05417Q24.065638 246.83542 24.659388 247.36667Q25.237513 247.8823 26.440638 247.8823ZM29.550013 237.49167L28.628138 237.49167Q29.690638 238.22604 29.690638 239.47604Q29.690638 240.02292 29.487513 240.5073Q29.268763 240.97604 28.956263 241.21042Q28.628138 241.4448 28.159388 241.53854Q27.862513 241.60104 27.175013 241.60104L23.331263 241.60104L23.331263 240.53854L26.784388 240.53854Q27.596888 240.53854 27.893763 240.47604Q28.300013 240.3823 28.550013 240.0698Q28.784388 239.74167 28.784388 239.2573Q28.784388 238.78854 28.550013 238.3823Q28.300013 237.96042 27.878138 237.78854Q27.456263 237.60104 26.659388 237.60104L23.331263 237.60104L23.331263 236.55417L29.550013 236.55417L29.550013 237.49167ZM30.065638 234.77292L30.221888 233.74167Q30.690638 233.67917 30.909388 233.3823Q31.206263 232.99167 31.206263 232.3198Q31.206263 231.58542 30.909388 231.1948Q30.612513 230.78854 30.096888 230.64792Q29.768763 230.55417 28.737513 230.5698Q29.550013 231.2573 29.550013 232.28854Q29.550013 233.5698 28.628138 234.27292Q27.690638 234.97604 26.409388 234.97604Q25.518763 234.97604 24.768763 234.66354Q24.003138 234.33542 23.596888 233.72604Q23.190638 233.11667 23.190638 232.28854Q23.190638 231.17917 24.081263 230.46042L23.331263 230.46042L23.331263 229.49167L28.706263 229.49167Q30.159388 229.49167 30.768763 229.78854Q31.378138 230.08542 31.721888 230.72604Q32.08126 231.36667 32.08126 232.30417Q32.08126 233.41354 31.581263 234.10104Q31.081263 234.78854 30.065638 234.77292ZM26.331263 233.89792Q27.550013 233.89792 28.112513 233.41354Q28.675013 232.92917 28.675013 232.1948Q28.675013 231.46042 28.112513 230.97604Q27.550013 230.47604 26.362513 230.47604Q25.221888 230.47604 24.643763 230.99167Q24.065638 231.49167 24.065638 232.21042Q24.065638 232.91354 24.643763 233.41354Q25.206263 233.89792 26.331263 233.89792ZM29.550013 227.5698L20.956263 227.5698L20.956263 226.52292L24.034388 226.52292Q23.190638 225.78854 23.190638 224.66354Q23.190638 223.96042 23.471888 223.46042Q23.737513 222.9448 24.221888 222.72604Q24.690638 222.5073 25.612513 222.5073L29.550013 222.5073L29.550013 223.55417L25.612513 223.55417Q24.815638 223.55417 24.456263 223.89792Q24.096888 224.24167 24.096888 224.86667Q24.096888 225.33542 24.346888 225.7573Q24.581263 226.16354 25.003138 226.35104Q25.409388 226.52292 26.143763 226.52292L29.550013 226.52292L29.550013 227.5698ZM31.940638 220.5698L23.331263 220.5698L23.331263 219.61667L24.128138 219.61667Q23.659388 219.27292 23.425013 218.85104Q23.190638 218.41354 23.190638 217.80417Q23.190638 217.0073 23.596888 216.39792Q24.003138 215.78854 24.753138 215.49167Q25.503138 215.17917 26.393763 215.17917Q27.346888 215.17917 28.112513 215.52292Q28.878138 215.85104 29.284388 216.5073Q29.690638 217.16354 29.690638 217.8823Q29.690638 218.41354 29.471888 218.83542Q29.237513 219.2573 28.909388 219.52292L31.940638 219.52292L31.940638 220.5698ZM26.471888 219.61667Q27.675013 219.61667 28.253138 219.1323Q28.815638 218.64792 28.815638 217.96042Q28.815638 217.2573 28.221888 216.7573Q27.628138 216.2573 26.378138 216.2573Q25.190638 216.2573 24.612513 216.74167Q24.018763 217.22604 24.018763 217.91354Q24.018763 218.58542 24.643763 219.10104Q25.268763 219.61667 26.471888 219.61667ZM29.550013 209.49167L28.628138 209.49167Q29.690638 210.22604 29.690638 211.47604Q29.690638 212.02292 29.487513 212.5073Q29.268763 212.97604 28.956263 213.21042Q28.628138 213.4448 28.159388 213.53854Q27.862513 213.60104 27.175013 213.60104L23.331263 213.60104L23.331263 212.53854L26.784388 212.53854Q27.596888 212.53854 27.893763 212.47604Q28.300013 212.3823 28.550013 212.0698Q28.784388 211.74167 28.784388 211.2573Q28.784388 210.78854 28.550013 210.3823Q28.300013 209.96042 27.878138 209.78854Q27.456263 209.60104 26.659388 209.60104L23.331263 209.60104L23.331263 208.55417L29.550013 208.55417L29.550013 209.49167ZM28.612513 204.27292L29.534388 204.11667Q29.628138 204.5698 29.628138 204.91354Q29.628138 205.49167 29.456263 205.80417Q29.268763 206.11667 28.971888 206.2573Q28.675013 206.3823 27.721888 206.3823L24.143763 206.3823L24.143763 207.14792L23.331263 207.14792L23.331263 206.3823L21.784388 206.3823L21.159388 205.33542L23.331263 205.33542L23.331263 204.27292L24.143763 204.27292L24.143763 205.33542L27.784388 205.33542Q28.237513 205.33542 28.362513 205.28854Q28.487513 205.22604 28.565638 205.10104Q28.643763 204.97604 28.643763 204.74167Q28.643763 204.55417 28.612513 204.27292ZM32.08126 201.55417Q30.971888 202.42917 29.503138 203.03854Q28.018763 203.6323 26.440638 203.6323Q25.050013 203.6323 23.768763 203.1948Q22.284388 202.66354 20.815638 201.55417L20.815638 200.80417Q22.034388 201.5073 22.550013 201.74167Q23.362513 202.10104 24.237513 202.30417Q25.331263 202.55417 26.440638 202.55417Q29.268763 202.55417 32.08126 200.80417L32.08126 201.55417ZM29.550013 199.47604L20.956263 199.47604L20.956263 197.7573L27.034388 195.72604Q27.893763 195.4448 28.315638 195.3198Q27.846888 195.17917 26.940638 194.86667L20.956263 192.80417L20.956263 191.27292L29.550013 191.27292L29.550013 192.36667L22.362513 192.36667L29.550013 194.86667L29.550013 195.89792L22.237513 198.3823L29.550013 198.3823L29.550013 199.47604ZM22.175013 189.5698L20.956263 189.5698L20.956263 188.5073L22.175013 188.5073L22.175013 189.5698ZM29.550013 189.5698L23.331263 189.5698L23.331263 188.5073L29.550013 188.5073L29.550013 189.5698ZM29.550013 186.49167L20.956263 186.49167L20.956263 183.2573Q20.956263 182.27292 21.221888 181.67917Q21.487513 181.08542 22.034388 180.7573Q22.565638 180.41354 23.159388 180.41354Q23.706263 180.41354 24.190638 180.71042Q24.675013 181.0073 24.971888 181.61667Q25.206263 180.83542 25.768763 180.42917Q26.315638 180.0073 27.065638 180.0073Q27.659388 180.0073 28.190638 180.2573Q28.706263 180.5073 28.987513 180.8823Q29.268763 181.2573 29.409388 181.83542Q29.550013 182.39792 29.550013 183.21042L29.550013 186.49167ZM24.565638 185.35104L24.565638 183.49167Q24.565638 182.74167 24.471888 182.41354Q24.346888 181.97604 24.050013 181.7573Q23.737513 181.53854 23.284388 181.53854Q22.862513 181.53854 22.534388 181.74167Q22.206263 181.9448 22.096888 182.33542Q21.971888 182.71042 21.971888 183.6323L21.971888 185.35104L24.565638 185.35104ZM28.534388 185.35104L28.534388 183.21042Q28.534388 182.66354 28.487513 182.4448Q28.425013 182.03854 28.268763 181.78854Q28.096888 181.52292 27.784388 181.35104Q27.471888 181.17917 27.065638 181.17917Q26.581263 181.17917 26.221888 181.42917Q25.862513 181.66354 25.721888 182.10104Q25.581263 182.53854 25.581263 183.36667L25.581263 185.35104L28.534388 185.35104ZM29.690638 179.36667L20.815638 176.8823L20.815638 176.03854L29.690638 178.52292L29.690638 179.36667ZM27.690638 175.99167L27.534388 174.96042Q28.159388 174.86667 28.487513 174.47604Q28.815638 174.0698 28.815638 173.33542Q28.815638 172.61667 28.534388 172.27292Q28.237513 171.91354 27.831263 171.91354Q27.471888 171.91354 27.268763 172.22604Q27.128138 172.4448 26.909388 173.30417Q26.612513 174.46042 26.409388 174.91354Q26.190638 175.35104 25.815638 175.58542Q25.440638 175.8198 24.971888 175.8198Q24.565638 175.8198 24.206263 175.6323Q23.846888 175.4448 23.612513 175.11667Q23.440638 174.86667 23.315638 174.4448Q23.190638 174.02292 23.190638 173.52292Q23.190638 172.80417 23.409388 172.2573Q23.612513 171.6948 23.971888 171.42917Q24.331263 171.16354 24.925013 171.0698L25.065638 172.10104Q24.596888 172.16354 24.331263 172.5073Q24.050013 172.83542 24.050013 173.46042Q24.050013 174.17917 24.300013 174.49167Q24.534388 174.80417 24.862513 174.80417Q25.065638 174.80417 25.221888 174.67917Q25.393763 174.53854 25.503138 174.27292Q25.565638 174.11667 25.768763 173.33542Q26.081263 172.21042 26.268763 171.77292Q26.456263 171.33542 26.815638 171.08542Q27.175013 170.83542 27.721888 170.83542Q28.253138 170.83542 28.721888 171.14792Q29.175013 171.4448 29.440638 172.02292Q29.690638 172.60104 29.690638 173.33542Q29.690638 174.55417 29.190638 175.1948Q28.675013 175.8198 27.690638 175.99167ZM32.08126 168.8823L32.08126 169.6323Q29.268763 167.8823 26.440638 167.8823Q25.346888 167.8823 24.253138 168.1323Q23.378138 168.33542 22.565638 168.6948Q22.050013 168.92917 20.815638 169.6323L20.815638 168.8823Q22.284388 167.78854 23.768763 167.2573Q25.050013 166.80417 26.440638 166.80417Q28.018763 166.80417 29.503138 167.41354Q30.971888 168.02292 32.08126 168.8823Z" fill-rule="nonzero"/><path fill="#000000" d="M72.05 332.21564Q72.05 330.6844 72.3625 329.7625Q72.675 328.825 73.28438 328.325Q73.90938 327.825 74.84688 327.825Q75.53438 327.825 76.05 328.10626Q76.58125 328.3875 76.925 328.91876Q77.26875 329.4344 77.45625 330.1844Q77.64375 330.9344 77.64375 332.21564Q77.64375 333.73126 77.33125 334.65314Q77.03438 335.575 76.40938 336.09064Q75.8 336.59064 74.84688 336.59064Q73.6125 336.59064 72.89375 335.7Q72.05 334.6375 72.05 332.21564ZM73.12813 332.21564Q73.12813 334.325 73.62813 335.02814Q74.12813 335.73126 74.84688 335.73126Q75.58125 335.73126 76.06563 335.02814Q76.56563 334.325 76.56563 332.21564Q76.56563 330.09064 76.06563 329.40314Q75.58125 328.7 74.83125 328.7Q74.1125 328.7 73.675 329.3094Q73.12813 330.09064 73.12813 332.21564Z" fill-rule="nonzero"/><path fill="#000000" d="M55.01875 255.06111L53.971874 255.06111L53.971874 248.34236Q53.58125 248.70174 52.95625 249.07674Q52.346874 249.43611 51.8625 249.60799L51.8625 248.59236Q52.7375 248.17049 53.39375 247.59236Q54.065624 246.99861 54.346874 246.43611L55.01875 246.43611L55.01875 255.06111ZM58.05 250.82674Q58.05 249.29549 58.3625 248.37361Q58.675 247.43611 59.284374 246.93611Q59.909374 246.43611 60.846874 246.43611Q61.534374 246.43611 62.05 246.71736Q62.58125 246.99861 62.925 247.52986Q63.26875 248.04549 63.45625 248.79549Q63.64375 249.54549 63.64375 250.82674Q63.64375 252.34236 63.33125 253.26424Q63.034374 254.18611 62.409374 254.70174Q61.8 255.20174 60.846874 255.20174Q59.6125 255.20174 58.89375 254.31111Q58.05 253.24861 58.05 250.82674ZM59.128124 250.82674Q59.128124 252.93611 59.628124 253.63924Q60.128124 254.34236 60.846874 254.34236Q61.58125 254.34236 62.065624 253.63924Q62.565624 252.93611 62.565624 250.82674Q62.565624 248.70174 62.065624 248.01424Q61.58125 247.31111 60.83125 247.31111Q60.1125 247.31111 59.675 247.92049Q59.128124 248.70174 59.128124 250.82674ZM65.05 250.82674Q65.05 249.29549 65.3625 248.37361Q65.675 247.43611 66.28438 246.93611Q66.90938 246.43611 67.84688 246.43611Q68.53438 246.43611 69.05 246.71736Q69.58125 246.99861 69.925 247.52986Q70.26875 248.04549 70.45625 248.79549Q70.64375 249.54549 70.64375 250.82674Q70.64375 252.34236 70.33125 253.26424Q70.03438 254.18611 69.40938 254.70174Q68.8 255.20174 67.84688 255.20174Q66.6125 255.20174 65.89375 254.31111Q65.05 253.24861 65.05 250.82674ZM66.12813 250.82674Q66.12813 252.93611 66.62813 253.63924Q67.12813 254.34236 67.84688 254.34236Q68.58125 254.34236 69.06563 253.63924Q69.56563 252.93611 69.56563 250.82674Q69.56563 248.70174 69.06563 248.01424Q68.58125 247.31111 67.83125 247.31111Q67.1125 247.31111 66.675 247.92049Q66.12813 248.70174 66.12813 250.82674ZM72.05 250.82674Q72.05 249.29549 72.3625 248.37361Q72.675 247.43611 73.28438 246.93611Q73.90938 246.43611 74.84688 246.43611Q75.53438 246.43611 76.05 246.71736Q76.58125 246.99861 76.925 247.52986Q77.26875 248.04549 77.45625 248.79549Q77.64375 249.54549 77.64375 250.82674Q77.64375 252.34236 77.33125 253.26424Q77.03438 254.18611 76.40938 254.70174Q75.8 255.20174 74.84688 255.20174Q73.6125 255.20174 72.89375 254.31111Q72.05 253.24861 72.05 250.82674ZM73.12813 250.82674Q73.12813 252.93611 73.62813 253.63924Q74.12813 254.34236 74.84688 254.34236Q75.58125 254.34236 76.06563 253.63924Q76.56563 252.93611 76.56563 250.82674Q76.56563 248.70174 76.06563 248.01424Q75.58125 247.31111 74.83125 247.31111Q74.1125 247.31111 73.675 247.92049Q73.12813 248.70174 73.12813 250.82674Z" fill-rule="nonzero"/><path fill="#000000" d="M56.596874 172.6566L56.596874 173.67223L50.909374 173.67223Q50.909374 173.29723 51.034374 172.93785Q51.253124 172.35973 51.721874 171.79723Q52.20625 171.23473 53.1125 170.50035Q54.51875 169.3441 55.003124 168.67223Q55.503124 168.00035 55.503124 167.4066Q55.503124 166.7816 55.05 166.35973Q54.596874 165.92223 53.878124 165.92223Q53.1125 165.92223 52.659374 166.37535Q52.20625 166.82848 52.190624 167.64098L51.1125 167.5316Q51.221874 166.31285 51.940624 165.68785Q52.675 165.04723 53.909374 165.04723Q55.14375 165.04723 55.8625 165.73473Q56.58125 166.42223 56.58125 167.43785Q56.58125 167.95348 56.3625 168.45348Q56.159374 168.93785 55.659374 169.50035Q55.175 170.04723 54.05 171.00035Q53.096874 171.79723 52.815624 172.0941Q52.55 172.37535 52.378124 172.6566L56.596874 172.6566ZM58.05 169.43785Q58.05 167.9066 58.3625 166.98473Q58.675 166.04723 59.284374 165.54723Q59.909374 165.04723 60.846874 165.04723Q61.534374 165.04723 62.05 165.32848Q62.58125 165.60973 62.925 166.14098Q63.26875 166.6566 63.45625 167.4066Q63.64375 168.1566 63.64375 169.43785Q63.64375 170.95348 63.33125 171.87535Q63.034374 172.79723 62.409374 173.31285Q61.8 173.81285 60.846874 173.81285Q59.6125 173.81285 58.89375 172.92223Q58.05 171.85973 58.05 169.43785ZM59.128124 169.43785Q59.128124 171.54723 59.628124 172.25035Q60.128124 172.95348 60.846874 172.95348Q61.58125 172.95348 62.065624 172.25035Q62.565624 171.54723 62.565624 169.43785Q62.565624 167.31285 62.065624 166.62535Q61.58125 165.92223 60.83125 165.92223Q60.1125 165.92223 59.675 166.5316Q59.128124 167.31285 59.128124 169.43785ZM65.05 169.43785Q65.05 167.9066 65.3625 166.98473Q65.675 166.04723 66.28438 165.54723Q66.90938 165.04723 67.84688 165.04723Q68.53438 165.04723 69.05 165.32848Q69.58125 165.60973 69.925 166.14098Q70.26875 166.6566 70.45625 167.4066Q70.64375 168.1566 70.64375 169.43785Q70.64375 170.95348 70.33125 171.87535Q70.03438 172.79723 69.40938 173.31285Q68.8 173.81285 67.84688 173.81285Q66.6125 173.81285 65.89375 172.92223Q65.05 171.85973 65.05 169.43785ZM66.12813 169.43785Q66.12813 171.54723 66.62813 172.25035Q67.12813 172.95348 67.84688 172.95348Q68.58125 172.95348 69.06563 172.25035Q69.56563 171.54723 69.56563 169.43785Q69.56563 167.31285 69.06563 166.62535Q68.58125 165.92223 67.83125 165.92223Q67.1125 165.92223 66.675 166.5316Q66.12813 167.31285 66.12813 169.43785ZM72.05 169.43785Q72.05 167.9066 72.3625 166.98473Q72.675 166.04723 73.28438 165.54723Q73.90938 165.04723 74.84688 165.04723Q75.53438 165.04723 76.05 165.32848Q76.58125 165.60973 76.925 166.14098Q77.26875 166.6566 77.45625 167.4066Q77.64375 168.1566 77.64375 169.43785Q77.64375 170.95348 77.33125 171.87535Q77.03438 172.79723 76.40938 173.31285Q75.8 173.81285 74.84688 173.81285Q73.6125 173.81285 72.89375 172.92223Q72.05 171.85973 72.05 169.43785ZM73.12813 169.43785Q73.12813 171.54723 73.62813 172.25035Q74.12813 172.95348 74.84688 172.95348Q75.58125 172.95348 76.06563 172.25035Q76.56563 171.54723 76.56563 169.43785Q76.56563 167.31285 76.06563 166.62535Q75.58125 165.92223 74.83125 165.92223Q74.1125 165.92223 73.675 166.5316Q73.12813 167.31285 73.12813 169.43785Z" fill-rule="nonzero"/><path fill="#000000" d="M51.05 90.01771L52.1125 89.87708Q52.284374 90.76771 52.721874 91.17396Q53.159374 91.56458 53.784374 91.56458Q54.534374 91.56458 55.05 91.04896Q55.565624 90.53333 55.565624 89.76771Q55.565624 89.04896 55.08125 88.58021Q54.6125 88.09583 53.878124 88.09583Q53.58125 88.09583 53.128124 88.22083L53.253124 87.28333Q53.3625 87.29896 53.425 87.29896Q54.096874 87.29896 54.628124 86.95521Q55.175 86.59583 55.175 85.86146Q55.175 85.28333 54.784374 84.90833Q54.39375 84.51771 53.76875 84.51771Q53.159374 84.51771 52.7375 84.90833Q52.33125 85.29896 52.221874 86.06458L51.159374 85.87708Q51.346874 84.83021 52.034374 84.25208Q52.721874 83.65833 53.7375 83.65833Q54.440624 83.65833 55.034374 83.97083Q55.628124 84.26771 55.940624 84.78333Q56.253124 85.29896 56.253124 85.89271Q56.253124 86.43958 55.95625 86.90833Q55.659374 87.36146 55.08125 87.62708Q55.83125 87.79896 56.253124 88.36146Q56.675 88.90833 56.675 89.75208Q56.675 90.87708 55.846874 91.65833Q55.034374 92.43958 53.784374 92.43958Q52.659374 92.43958 51.909374 91.76771Q51.159374 91.08021 51.05 90.01771ZM58.05 88.04896Q58.05 86.51771 58.3625 85.59583Q58.675 84.65833 59.284374 84.15833Q59.909374 83.65833 60.846874 83.65833Q61.534374 83.65833 62.05 83.93958Q62.58125 84.22083 62.925 84.75208Q63.26875 85.26771 63.45625 86.01771Q63.64375 86.76771 63.64375 88.04896Q63.64375 89.56458 63.33125 90.48646Q63.034374 91.40833 62.409374 91.92396Q61.8 92.42396 60.846874 92.42396Q59.6125 92.42396 58.89375 91.53333Q58.05 90.47083 58.05 88.04896ZM59.128124 88.04896Q59.128124 90.15833 59.628124 90.86146Q60.128124 91.56458 60.846874 91.56458Q61.58125 91.56458 62.065624 90.86146Q62.565624 90.15833 62.565624 88.04896Q62.565624 85.92396 62.065624 85.23646Q61.58125 84.53333 60.83125 84.53333Q60.1125 84.53333 59.675 85.14271Q59.128124 85.92396 59.128124 88.04896ZM65.05 88.04896Q65.05 86.51771 65.3625 85.59583Q65.675 84.65833 66.28438 84.15833Q66.90938 83.65833 67.84688 83.65833Q68.53438 83.65833 69.05 83.93958Q69.58125 84.22083 69.925 84.75208Q70.26875 85.26771 70.45625 86.01771Q70.64375 86.76771 70.64375 88.04896Q70.64375 89.56458 70.33125 90.48646Q70.03438 91.40833 69.40938 91.92396Q68.8 92.42396 67.84688 92.42396Q66.6125 92.42396 65.89375 91.53333Q65.05 90.47083 65.05 88.04896ZM66.12813 88.04896Q66.12813 90.15833 66.62813 90.86146Q67.12813 91.56458 67.84688 91.56458Q68.58125 91.56458 69.06563 90.86146Q69.56563 90.15833 69.56563 88.04896Q69.56563 85.92396 69.06563 85.23646Q68.58125 84.53333 67.83125 84.53333Q67.1125 84.53333 66.675 85.14271Q66.12813 85.92396 66.12813 88.04896ZM72.05 88.04896Q72.05 86.51771 72.3625 85.59583Q72.675 84.65833 73.28438 84.15833Q73.90938 83.65833 74.84688 83.65833Q75.53438 83.65833 76.05 83.93958Q76.58125 84.22083 76.925 84.75208Q77.26875 85.26771 77.45625 86.01771Q77.64375 86.76771 77.64375 88.04896Q77.64375 89.56458 77.33125 90.48646Q77.03438 91.40833 76.40938 91.92396Q75.8 92.42396 74.84688 92.42396Q73.6125 92.42396 72.89375 91.53333Q72.05 90.47083 72.05 88.04896ZM73.12813 88.04896Q73.12813 90.15833 73.62813 90.86146Q74.12813 91.56458 74.84688 91.56458Q75.58125 91.56458 76.06563 90.86146Q76.56563 90.15833 76.56563 88.04896Q76.56563 85.92396 76.06563 85.23646Q75.58125 84.53333 74.83125 84.53333Q74.1125 84.53333 73.675 85.14271Q73.12813 85.92396 73.12813 88.04896Z" fill-rule="nonzero"/><path fill="#000000" d="M128.59268 349.45L128.59268 340.85626L132.40518 340.85626Q133.56143 340.85626 134.15518 341.09064Q134.74893 341.325 135.1083 341.91876Q135.46768 342.4969 135.46768 343.2Q135.46768 344.1219 134.87393 344.7469Q134.28018 345.3719 133.0458 345.54376Q133.49893 345.7625 133.7333 345.96564Q134.2333 346.41876 134.6708 347.10626L136.1708 349.45L134.7333 349.45L133.6083 347.66876Q133.1083 346.8875 132.78018 346.48126Q132.46768 346.075 132.20206 345.91876Q131.95206 345.7469 131.68643 345.66876Q131.49893 345.6375 131.06143 345.6375L129.7333 345.6375L129.7333 349.45L128.59268 349.45ZM129.7333 344.65314L132.18643 344.65314Q132.95206 344.65314 133.38956 344.4969Q133.84268 344.325 134.06143 343.98126Q134.2958 343.6219 134.2958 343.2Q134.2958 342.59064 133.84268 342.2Q133.40518 341.8094 132.45206 341.8094L129.7333 341.8094L129.7333 344.65314ZM141.70206 347.45L142.7958 347.575Q142.5458 348.52814 141.84268 349.0594Q141.13956 349.59064 140.06143 349.59064Q138.70206 349.59064 137.88956 348.7469Q137.09268 347.90314 137.09268 346.3875Q137.09268 344.825 137.90518 343.96564Q138.71768 343.09064 139.99893 343.09064Q141.24893 343.09064 142.03018 343.9344Q142.82706 344.77814 142.82706 346.325Q142.82706 346.41876 142.82706 346.60626L138.18643 346.60626Q138.24893 347.6375 138.76456 348.1844Q139.28018 348.71564 140.06143 348.71564Q140.63956 348.71564 141.0458 348.41876Q141.46768 348.10626 141.70206 347.45ZM138.24893 345.7469L141.71768 345.7469Q141.65518 344.95 141.32706 344.5594Q140.81143 343.95 140.01456 343.95Q139.28018 343.95 138.78018 344.4344Q138.2958 344.91876 138.24893 345.7469ZM148.51456 348.6844Q147.9208 349.1844 147.37393 349.3875Q146.84268 349.59064 146.21768 349.59064Q145.18643 349.59064 144.63956 349.09064Q144.09268 348.59064 144.09268 347.8094Q144.09268 347.35626 144.2958 346.98126Q144.49893 346.59064 144.84268 346.3719Q145.18643 346.1375 145.6083 346.02814Q145.90518 345.9344 146.5458 345.85626Q147.81143 345.71564 148.4208 345.4969Q148.4208 345.27814 148.4208 345.23126Q148.4208 344.575 148.12393 344.3094Q147.71768 343.96564 146.9208 343.96564Q146.18643 343.96564 145.82706 344.23126Q145.46768 344.48126 145.2958 345.1375L144.26456 344.9969Q144.40518 344.34064 144.7333 343.9344Q145.06143 343.52814 145.6708 343.3094Q146.28018 343.09064 147.07706 343.09064Q147.87393 343.09064 148.37393 343.27814Q148.87393 343.46564 149.1083 343.7469Q149.34268 344.02814 149.43643 344.46564Q149.4833 344.73126 149.4833 345.4344L149.4833 346.84064Q149.4833 348.3094 149.5458 348.7Q149.62393 349.09064 149.82706 349.45L148.71768 349.45Q148.56143 349.1219 148.51456 348.6844ZM148.4208 346.325Q147.84268 346.5594 146.70206 346.73126Q146.0458 346.825 145.78018 346.95Q145.51456 347.0594 145.3583 347.27814Q145.21768 347.4969 145.21768 347.77814Q145.21768 348.2 145.53018 348.48126Q145.8583 348.7625 146.46768 348.7625Q147.07706 348.7625 147.5458 348.4969Q148.03018 348.23126 148.24893 347.7625Q148.4208 347.40314 148.4208 346.71564L148.4208 346.325ZM155.4833 349.45L155.4833 348.66876Q154.88956 349.59064 153.74893 349.59064Q152.99893 349.59064 152.37393 349.1844Q151.74893 348.7625 151.40518 348.02814Q151.06143 347.29376 151.06143 346.34064Q151.06143 345.41876 151.37393 344.65314Q151.68643 343.8875 152.31143 343.4969Q152.93643 343.09064 153.70206 343.09064Q154.26456 343.09064 154.70206 343.325Q155.13956 343.5594 155.4208 343.9344L155.4208 340.85626L156.46768 340.85626L156.46768 349.45L155.4833 349.45ZM152.15518 346.34064Q152.15518 347.54376 152.65518 348.1375Q153.15518 348.71564 153.84268 348.71564Q154.53018 348.71564 155.01456 348.15314Q155.49893 347.59064 155.49893 346.4344Q155.49893 345.15314 154.99893 344.5594Q154.51456 343.96564 153.7958 343.96564Q153.09268 343.96564 152.62393 344.54376Q152.15518 345.10626 152.15518 346.34064ZM163.46768 351.98126Q162.59268 350.8719 161.9833 349.40314Q161.38956 347.91876 161.38956 346.34064Q161.38956 344.95 161.82706 343.66876Q162.3583 342.1844 163.46768 340.71564L164.21768 340.71564Q163.51456 341.9344 163.28018 342.45Q162.9208 343.2625 162.71768 344.1375Q162.46768 345.23126 162.46768 346.34064Q162.46768 349.16876 164.21768 351.98126L163.46768 351.98126ZM169.12393 349.45L168.07706 349.45L168.07706 342.73126Q167.68643 343.09064 167.06143 343.46564Q166.45206 343.825 165.96768 343.9969L165.96768 342.98126Q166.84268 342.5594 167.49893 341.98126Q168.1708 341.3875 168.45206 340.825L169.12393 340.825L169.12393 349.45ZM175.43643 342.09064L175.43643 340.85626L176.49893 340.85626L176.49893 342.09064L175.43643 342.09064ZM174.1083 351.8719L174.2958 350.96564Q174.62393 351.04376 174.7958 351.04376Q175.12393 351.04376 175.28018 350.825Q175.43643 350.6219 175.43643 349.7625L175.43643 343.23126L176.49893 343.23126L176.49893 349.79376Q176.49893 350.9344 176.20206 351.3875Q175.81143 351.98126 174.93643 351.98126Q174.49893 351.98126 174.1083 351.8719ZM178.06143 346.34064Q178.06143 344.60626 179.01456 343.77814Q179.81143 343.09064 180.96768 343.09064Q182.24893 343.09064 183.06143 343.9344Q183.88956 344.7625 183.88956 346.2469Q183.88956 347.45 183.53018 348.1375Q183.1708 348.825 182.46768 349.21564Q181.78018 349.59064 180.96768 349.59064Q179.6708 349.59064 178.8583 348.7625Q178.06143 347.91876 178.06143 346.34064ZM179.13956 346.34064Q179.13956 347.52814 179.65518 348.1219Q180.18643 348.71564 180.96768 348.71564Q181.76456 348.71564 182.28018 348.1219Q182.7958 347.52814 182.7958 346.3094Q182.7958 345.15314 182.26456 344.5594Q181.74893 343.96564 180.96768 343.96564Q180.18643 343.96564 179.65518 344.5594Q179.13956 345.1375 179.13956 346.34064ZM186.4208 349.45L185.43643 349.45L185.43643 340.85626L186.49893 340.85626L186.49893 343.91876Q187.1708 343.09064 188.20206 343.09064Q188.78018 343.09064 189.28018 343.325Q189.7958 343.54376 190.12393 343.96564Q190.46768 344.3875 190.65518 344.98126Q190.84268 345.575 190.84268 346.2469Q190.84268 347.84064 190.0458 348.71564Q189.24893 349.59064 188.15518 349.59064Q187.0458 349.59064 186.4208 348.66876L186.4208 349.45ZM186.40518 346.29376Q186.40518 347.40314 186.71768 347.90314Q187.21768 348.71564 188.06143 348.71564Q188.74893 348.71564 189.24893 348.1219Q189.76456 347.52814 189.76456 346.325Q189.76456 345.10626 189.28018 344.52814Q188.7958 343.95 188.1083 343.95Q187.4208 343.95 186.90518 344.5594Q186.40518 345.15314 186.40518 346.29376ZM193.13956 351.98126L192.38956 351.98126Q194.13956 349.16876 194.13956 346.34064Q194.13956 345.2469 193.88956 344.15314Q193.68643 343.27814 193.32706 342.46564Q193.09268 341.95 192.38956 340.71564L193.13956 340.71564Q194.2333 342.1844 194.76456 343.66876Q195.21768 344.95 195.21768 346.34064Q195.21768 347.91876 194.6083 349.40314Q193.99893 350.8719 193.13956 351.98126Z" fill-rule="nonzero"/><path fill="#000000" d="M245.30693 349.45L243.02568 340.85626L244.19756 340.85626L245.51006 346.4969Q245.71318 347.3719 245.86943 348.2469Q246.19756 346.8719 246.26006 346.65314L247.88506 340.85626L249.26006 340.85626L250.49443 345.2Q250.94756 346.825 251.1663 348.2469Q251.32256 347.4344 251.58818 346.3719L252.93193 340.85626L254.07256 340.85626L251.7288 349.45L250.61943 349.45L248.82256 342.90314Q248.58818 342.09064 248.5413 341.90314Q248.4163 342.48126 248.2913 342.90314L246.4788 349.45L245.30693 349.45ZM254.6663 349.45L254.6663 343.23126L255.61943 343.23126L255.61943 344.16876Q255.9788 343.5125 256.2757 343.3094Q256.5882 343.09064 256.9632 343.09064Q257.49445 343.09064 258.04132 343.41876L257.68195 344.40314Q257.29132 344.16876 256.91632 344.16876Q256.55695 344.16876 256.2757 344.3875Q256.01007 344.59064 255.90068 344.96564Q255.71318 345.52814 255.71318 346.1844L255.71318 349.45L254.6663 349.45ZM258.68195 342.075L258.68195 340.85626L259.74445 340.85626L259.74445 342.075L258.68195 342.075ZM258.68195 349.45L258.68195 343.23126L259.74445 343.23126L259.74445 349.45L258.68195 349.45ZM263.97882 348.5125L264.13507 349.4344Q263.68195 349.52814 263.3382 349.52814Q262.76007 349.52814 262.44757 349.35626Q262.13507 349.16876 261.99445 348.8719Q261.86945 348.575 261.86945 347.6219L261.86945 344.04376L261.10382 344.04376L261.10382 343.23126L261.86945 343.23126L261.86945 341.6844L262.91632 341.0594L262.91632 343.23126L263.97882 343.23126L263.97882 344.04376L262.91632 344.04376L262.91632 347.6844Q262.91632 348.1375 262.9632 348.2625Q263.0257 348.3875 263.1507 348.46564Q263.2757 348.54376 263.51007 348.54376Q263.69757 348.54376 263.97882 348.5125ZM268.93195 347.45L270.0257 347.575Q269.7757 348.52814 269.07257 349.0594Q268.36945 349.59064 267.29132 349.59064Q265.93195 349.59064 265.11945 348.7469Q264.32257 347.90314 264.32257 346.3875Q264.32257 344.825 265.13507 343.96564Q265.94757 343.09064 267.22882 343.09064Q268.47882 343.09064 269.26007 343.9344Q270.05695 344.77814 270.05695 346.325Q270.05695 346.41876 270.05695 346.60626L265.41632 346.60626Q265.47882 347.6375 265.99445 348.1844Q266.51007 348.71564 267.29132 348.71564Q267.86945 348.71564 268.2757 348.41876Q268.69757 348.10626 268.93195 347.45ZM265.47882 345.7469L268.94757 345.7469Q268.88507 344.95 268.55695 344.5594Q268.04132 343.95 267.24445 343.95Q266.51007 343.95 266.01007 344.4344Q265.5257 344.91876 265.47882 345.7469ZM276.69757 351.98126Q275.82257 350.8719 275.2132 349.40314Q274.61945 347.91876 274.61945 346.34064Q274.61945 344.95 275.05695 343.66876Q275.5882 342.1844 276.69757 340.71564L277.44757 340.71564Q276.74445 341.9344 276.51007 342.45Q276.1507 343.2625 275.94757 344.1375Q275.69757 345.23126 275.69757 346.34064Q275.69757 349.16876 277.44757 351.98126L276.69757 351.98126ZM282.35382 349.45L281.30695 349.45L281.30695 342.73126Q280.91632 343.09064 280.29132 343.46564Q279.68195 343.825 279.19757 343.9969L279.19757 342.98126Q280.07257 342.5594 280.72882 341.98126Q281.4007 341.3875 281.68195 340.825L282.35382 340.825L282.35382 349.45ZM288.66632 342.09064L288.66632 340.85626L289.72882 340.85626L289.72882 342.09064L288.66632 342.09064ZM287.3382 351.8719L287.5257 350.96564Q287.85382 351.04376 288.0257 351.04376Q288.35382 351.04376 288.51007 350.825Q288.66632 350.6219 288.66632 349.7625L288.66632 343.23126L289.72882 343.23126L289.72882 349.79376Q289.72882 350.9344 289.43195 351.3875Q289.04132 351.98126 288.16632 351.98126Q287.72882 351.98126 287.3382 351.8719ZM291.29132 346.34064Q291.29132 344.60626 292.24445 343.77814Q293.04132 343.09064 294.19757 343.09064Q295.47882 343.09064 296.29132 343.9344Q297.11945 344.7625 297.11945 346.2469Q297.11945 347.45 296.76007 348.1375Q296.4007 348.825 295.69757 349.21564Q295.01007 349.59064 294.19757 349.59064Q292.9007 349.59064 292.0882 348.7625Q291.29132 347.91876 291.29132 346.34064ZM292.36945 346.34064Q292.36945 347.52814 292.88507 348.1219Q293.41632 348.71564 294.19757 348.71564Q294.99445 348.71564 295.51007 348.1219Q296.0257 347.52814 296.0257 346.3094Q296.0257 345.15314 295.49445 344.5594Q294.97882 343.96564 294.19757 343.96564Q293.41632 343.96564 292.88507 344.5594Q292.36945 345.1375 292.36945 346.34064ZM299.6507 349.45L298.66632 349.45L298.66632 340.85626L299.72882 340.85626L299.72882 343.91876Q300.4007 343.09064 301.43195 343.09064Q302.01007 343.09064 302.51007 343.325Q303.0257 343.54376 303.35382 343.96564Q303.69757 344.3875 303.88507 344.98126Q304.07257 345.575 304.07257 346.2469Q304.07257 347.84064 303.2757 348.71564Q302.47882 349.59064 301.38507 349.59064Q300.2757 349.59064 299.6507 348.66876L299.6507 349.45ZM299.63507 346.29376Q299.63507 347.40314 299.94757 347.90314Q300.44757 348.71564 301.29132 348.71564Q301.97882 348.71564 302.47882 348.1219Q302.99445 347.52814 302.99445 346.325Q302.99445 345.10626 302.51007 344.52814Q302.0257 343.95 301.3382 343.95Q300.6507 343.95 300.13507 344.5594Q299.63507 345.15314 299.63507 346.29376ZM306.36945 351.98126L305.61945 351.98126Q307.36945 349.16876 307.36945 346.34064Q307.36945 345.2469 307.11945 344.15314Q306.91632 343.27814 306.55695 342.46564Q306.32257 341.95 305.61945 340.71564L306.36945 340.71564Q307.4632 342.1844 307.99445 343.66876Q308.44757 344.95 308.44757 346.34064Q308.44757 347.91876 307.8382 349.40314Q307.22882 350.8719 306.36945 351.98126Z" fill-rule="nonzero"/><path fill="#000000" d="M350.55243 349.45L350.55243 340.85626L354.36493 340.85626Q355.52118 340.85626 356.11493 341.09064Q356.70868 341.325 357.06805 341.91876Q357.42743 342.4969 357.42743 343.2Q357.42743 344.1219 356.83368 344.7469Q356.23993 345.3719 355.00555 345.54376Q355.45868 345.7625 355.69305 345.96564Q356.19305 346.41876 356.63055 347.10626L358.13055 349.45L356.69305 349.45L355.56805 347.66876Q355.06805 346.8875 354.73993 346.48126Q354.42743 346.075 354.1618 345.91876Q353.9118 345.7469 353.64618 345.66876Q353.45868 345.6375 353.02118 345.6375L351.69305 345.6375L351.69305 349.45L350.55243 349.45ZM351.69305 344.65314L354.14618 344.65314Q354.9118 344.65314 355.3493 344.4969Q355.80243 344.325 356.02118 343.98126Q356.25555 343.6219 356.25555 343.2Q356.25555 342.59064 355.80243 342.2Q355.36493 341.8094 354.4118 341.8094L351.69305 341.8094L351.69305 344.65314ZM363.6618 347.45L364.75555 347.575Q364.50555 348.52814 363.80243 349.0594Q363.0993 349.59064 362.02118 349.59064Q360.6618 349.59064 359.8493 348.7469Q359.05243 347.90314 359.05243 346.3875Q359.05243 344.825 359.86493 343.96564Q360.67743 343.09064 361.95868 343.09064Q363.20868 343.09064 363.98993 343.9344Q364.7868 344.77814 364.7868 346.325Q364.7868 346.41876 364.7868 346.60626L360.14618 346.60626Q360.20868 347.6375 360.7243 348.1844Q361.23993 348.71564 362.02118 348.71564Q362.5993 348.71564 363.00555 348.41876Q363.42743 348.10626 363.6618 347.45ZM360.20868 345.7469L363.67743 345.7469Q363.61493 344.95 363.2868 344.5594Q362.77118 343.95 361.9743 343.95Q361.23993 343.95 360.73993 344.4344Q360.25555 344.91876 360.20868 345.7469ZM370.4743 348.6844Q369.88055 349.1844 369.33368 349.3875Q368.80243 349.59064 368.17743 349.59064Q367.14618 349.59064 366.5993 349.09064Q366.05243 348.59064 366.05243 347.8094Q366.05243 347.35626 366.25555 346.98126Q366.45868 346.59064 366.80243 346.3719Q367.14618 346.1375 367.56805 346.02814Q367.86493 345.9344 368.50555 345.85626Q369.77118 345.71564 370.38055 345.4969Q370.38055 345.27814 370.38055 345.23126Q370.38055 344.575 370.08368 344.3094Q369.67743 343.96564 368.88055 343.96564Q368.14618 343.96564 367.7868 344.23126Q367.42743 344.48126 367.25555 345.1375L366.2243 344.9969Q366.36493 344.34064 366.69305 343.9344Q367.02118 343.52814 367.63055 343.3094Q368.23993 343.09064 369.0368 343.09064Q369.83368 343.09064 370.33368 343.27814Q370.83368 343.46564 371.06805 343.7469Q371.30243 344.02814 371.39618 344.46564Q371.44305 344.73126 371.44305 345.4344L371.44305 346.84064Q371.44305 348.3094 371.50555 348.7Q371.58368 349.09064 371.7868 349.45L370.67743 349.45Q370.52118 349.1219 370.4743 348.6844ZM370.38055 346.325Q369.80243 346.5594 368.6618 346.73126Q368.00555 346.825 367.73993 346.95Q367.4743 347.0594 367.31805 347.27814Q367.17743 347.4969 367.17743 347.77814Q367.17743 348.2 367.48993 348.48126Q367.81805 348.7625 368.42743 348.7625Q369.0368 348.7625 369.50555 348.4969Q369.98993 348.23126 370.20868 347.7625Q370.38055 347.40314 370.38055 346.71564L370.38055 346.325ZM377.44305 349.45L377.44305 348.66876Q376.8493 349.59064 375.70868 349.59064Q374.95868 349.59064 374.33368 349.1844Q373.70868 348.7625 373.36493 348.02814Q373.02118 347.29376 373.02118 346.34064Q373.02118 345.41876 373.33368 344.65314Q373.64618 343.8875 374.27118 343.4969Q374.89618 343.09064 375.6618 343.09064Q376.2243 343.09064 376.6618 343.325Q377.0993 343.5594 377.38055 343.9344L377.38055 340.85626L378.42743 340.85626L378.42743 349.45L377.44305 349.45ZM374.11493 346.34064Q374.11493 347.54376 374.61493 348.1375Q375.11493 348.71564 375.80243 348.71564Q376.48993 348.71564 376.9743 348.15314Q377.45868 347.59064 377.45868 346.4344Q377.45868 345.15314 376.95868 344.5594Q376.4743 343.96564 375.75555 343.96564Q375.05243 343.96564 374.58368 344.54376Q374.11493 345.10626 374.11493 346.34064ZM385.42743 351.98126Q384.55243 350.8719 383.94305 349.40314Q383.3493 347.91876 383.3493 346.34064Q383.3493 344.95 383.7868 343.66876Q384.31805 342.1844 385.42743 340.71564L386.17743 340.71564Q385.4743 341.9344 385.23993 342.45Q384.88055 343.2625 384.67743 344.1375Q384.42743 345.23126 384.42743 346.34064Q384.42743 349.16876 386.17743 351.98126L385.42743 351.98126ZM391.08368 349.45L390.0368 349.45L390.0368 342.73126Q389.64618 343.09064 389.02118 343.46564Q388.4118 343.825 387.92743 343.9969L387.92743 342.98126Q388.80243 342.5594 389.45868 341.98126Q390.13055 341.3875 390.4118 340.825L391.08368 340.825L391.08368 349.45ZM399.58368 342.96564L398.5368 343.04376Q398.39618 342.41876 398.14618 342.1375Q397.70868 341.6844 397.08368 341.6844Q396.58368 341.6844 396.19305 341.96564Q395.70868 342.34064 395.4118 343.04376Q395.13055 343.73126 395.11493 345.0125Q395.48993 344.4344 396.0368 344.15314Q396.5993 343.8719 397.20868 343.8719Q398.25555 343.8719 398.98993 344.65314Q399.73993 345.4344 399.73993 346.65314Q399.73993 347.46564 399.38055 348.16876Q399.0368 348.85626 398.42743 349.23126Q397.81805 349.59064 397.05243 349.59064Q395.7243 349.59064 394.89618 348.6219Q394.06805 347.65314 394.06805 345.4344Q394.06805 342.9344 394.98993 341.8094Q395.7868 340.825 397.14618 340.825Q398.1618 340.825 398.80243 341.40314Q399.45868 341.96564 399.58368 342.96564ZM395.2868 346.66876Q395.2868 347.21564 395.50555 347.71564Q395.73993 348.2 396.14618 348.46564Q396.56805 348.73126 397.0368 348.73126Q397.69305 348.73126 398.17743 348.2Q398.6618 347.65314 398.6618 346.73126Q398.6618 345.84064 398.17743 345.325Q397.70868 344.8094 396.98993 344.8094Q396.27118 344.8094 395.77118 345.325Q395.2868 345.84064 395.2868 346.66876ZM404.39618 342.09064L404.39618 340.85626L405.45868 340.85626L405.45868 342.09064L404.39618 342.09064ZM403.06805 351.8719L403.25555 350.96564Q403.58368 351.04376 403.75555 351.04376Q404.08368 351.04376 404.23993 350.825Q404.39618 350.6219 404.39618 349.7625L404.39618 343.23126L405.45868 343.23126L405.45868 349.79376Q405.45868 350.9344 405.1618 351.3875Q404.77118 351.98126 403.89618 351.98126Q403.45868 351.98126 403.06805 351.8719ZM407.02118 346.34064Q407.02118 344.60626 407.9743 343.77814Q408.77118 343.09064 409.92743 343.09064Q411.20868 343.09064 412.02118 343.9344Q412.8493 344.7625 412.8493 346.2469Q412.8493 347.45 412.48993 348.1375Q412.13055 348.825 411.42743 349.21564Q410.73993 349.59064 409.92743 349.59064Q408.63055 349.59064 407.81805 348.7625Q407.02118 347.91876 407.02118 346.34064ZM408.0993 346.34064Q408.0993 347.52814 408.61493 348.1219Q409.14618 348.71564 409.92743 348.71564Q410.7243 348.71564 411.23993 348.1219Q411.75555 347.52814 411.75555 346.3094Q411.75555 345.15314 411.2243 344.5594Q410.70868 343.96564 409.92743 343.96564Q409.14618 343.96564 408.61493 344.5594Q408.0993 345.1375 408.0993 346.34064ZM415.38055 349.45L414.39618 349.45L414.39618 340.85626L415.45868 340.85626L415.45868 343.91876Q416.13055 343.09064 417.1618 343.09064Q417.73993 343.09064 418.23993 343.325Q418.75555 343.54376 419.08368 343.96564Q419.42743 344.3875 419.61493 344.98126Q419.80243 345.575 419.80243 346.2469Q419.80243 347.84064 419.00555 348.71564Q418.20868 349.59064 417.11493 349.59064Q416.00555 349.59064 415.38055 348.66876L415.38055 349.45ZM415.36493 346.29376Q415.36493 347.40314 415.67743 347.90314Q416.17743 348.71564 417.02118 348.71564Q417.70868 348.71564 418.20868 348.1219Q418.7243 347.52814 418.7243 346.325Q418.7243 345.10626 418.23993 344.52814Q417.75555 343.95 417.06805 343.95Q416.38055 343.95 415.86493 344.5594Q415.36493 345.15314 415.36493 346.29376ZM420.98993 347.59064L422.02118 347.4344Q422.11493 348.0594 422.50555 348.3875Q422.9118 348.71564 423.64618 348.71564Q424.36493 348.71564 424.70868 348.4344Q425.06805 348.1375 425.06805 347.73126Q425.06805 347.3719 424.75555 347.16876Q424.5368 347.02814 423.67743 346.8094Q422.52118 346.5125 422.06805 346.3094Q421.63055 346.09064 421.39618 345.71564Q421.1618 345.34064 421.1618 344.8719Q421.1618 344.46564 421.3493 344.10626Q421.5368 343.7469 421.86493 343.5125Q422.11493 343.34064 422.5368 343.21564Q422.95868 343.09064 423.45868 343.09064Q424.17743 343.09064 424.7243 343.3094Q425.2868 343.5125 425.55243 343.8719Q425.81805 344.23126 425.9118 344.825L424.88055 344.96564Q424.81805 344.4969 424.4743 344.23126Q424.14618 343.95 423.52118 343.95Q422.80243 343.95 422.48993 344.2Q422.17743 344.4344 422.17743 344.7625Q422.17743 344.96564 422.30243 345.1219Q422.44305 345.29376 422.70868 345.40314Q422.86493 345.46564 423.64618 345.66876Q424.77118 345.98126 425.20868 346.16876Q425.64618 346.35626 425.89618 346.71564Q426.14618 347.075 426.14618 347.6219Q426.14618 348.15314 425.83368 348.6219Q425.5368 349.075 424.95868 349.34064Q424.38055 349.59064 423.64618 349.59064Q422.42743 349.59064 421.7868 349.09064Q421.1618 348.575 420.98993 347.59064ZM428.0993 351.98126L427.3493 351.98126Q429.0993 349.16876 429.0993 346.34064Q429.0993 345.2469 428.8493 344.15314Q428.64618 343.27814 428.2868 342.46564Q428.05243 341.95 427.3493 340.71564L428.0993 340.71564Q429.19305 342.1844 429.7243 343.66876Q430.17743 344.95 430.17743 346.34064Q430.17743 347.91876 429.56805 349.40314Q428.95868 350.8719 428.0993 351.98126Z" fill-rule="nonzero"/><path fill="#000000" d="M467.2667 349.45L464.98544 340.85626L466.15732 340.85626L467.46982 346.4969Q467.67294 347.3719 467.8292 348.2469Q468.15732 346.8719 468.21982 346.65314L469.84482 340.85626L471.21982 340.85626L472.4542 345.2Q472.90732 346.825 473.12607 348.2469Q473.28232 347.4344 473.54794 346.3719L474.8917 340.85626L476.03232 340.85626L473.68857 349.45L472.5792 349.45L470.78232 342.90314Q470.54794 342.09064 470.50107 341.90314Q470.37607 342.48126 470.25107 342.90314L468.43857 349.45L467.2667 349.45ZM476.62607 349.45L476.62607 343.23126L477.5792 343.23126L477.5792 344.16876Q477.93857 343.5125 478.23544 343.3094Q478.54794 343.09064 478.92294 343.09064Q479.4542 343.09064 480.00107 343.41876L479.6417 344.40314Q479.25107 344.16876 478.87607 344.16876Q478.5167 344.16876 478.23544 344.3875Q477.96982 344.59064 477.86044 344.96564Q477.67294 345.52814 477.67294 346.1844L477.67294 349.45L476.62607 349.45ZM480.6417 342.075L480.6417 340.85626L481.7042 340.85626L481.7042 342.075L480.6417 342.075ZM480.6417 349.45L480.6417 343.23126L481.7042 343.23126L481.7042 349.45L480.6417 349.45ZM485.93857 348.5125L486.09482 349.4344Q485.6417 349.52814 485.29794 349.52814Q484.71982 349.52814 484.40732 349.35626Q484.09482 349.16876 483.9542 348.8719Q483.8292 348.575 483.8292 347.6219L483.8292 344.04376L483.06357 344.04376L483.06357 343.23126L483.8292 343.23126L483.8292 341.6844L484.87607 341.0594L484.87607 343.23126L485.93857 343.23126L485.93857 344.04376L484.87607 344.04376L484.87607 347.6844Q484.87607 348.1375 484.92294 348.2625Q484.98544 348.3875 485.11044 348.46564Q485.23544 348.54376 485.46982 348.54376Q485.65732 348.54376 485.93857 348.5125ZM490.8917 347.45L491.98544 347.575Q491.73544 348.52814 491.03232 349.0594Q490.3292 349.59064 489.25107 349.59064Q487.8917 349.59064 487.0792 348.7469Q486.28232 347.90314 486.28232 346.3875Q486.28232 344.825 487.09482 343.96564Q487.90732 343.09064 489.18857 343.09064Q490.43857 343.09064 491.21982 343.9344Q492.0167 344.77814 492.0167 346.325Q492.0167 346.41876 492.0167 346.60626L487.37607 346.60626Q487.43857 347.6375 487.9542 348.1844Q488.46982 348.71564 489.25107 348.71564Q489.8292 348.71564 490.23544 348.41876Q490.65732 348.10626 490.8917 347.45ZM487.43857 345.7469L490.90732 345.7469Q490.84482 344.95 490.5167 344.5594Q490.00107 343.95 489.2042 343.95Q488.46982 343.95 487.96982 344.4344Q487.48544 344.91876 487.43857 345.7469ZM498.65732 351.98126Q497.78232 350.8719 497.17294 349.40314Q496.5792 347.91876 496.5792 346.34064Q496.5792 344.95 497.0167 343.66876Q497.54794 342.1844 498.65732 340.71564L499.40732 340.71564Q498.7042 341.9344 498.46982 342.45Q498.11044 343.2625 497.90732 344.1375Q497.65732 345.23126 497.65732 346.34064Q497.65732 349.16876 499.40732 351.98126L498.65732 351.98126ZM504.31357 349.45L503.2667 349.45L503.2667 342.73126Q502.87607 343.09064 502.25107 343.46564Q501.6417 343.825 501.15732 343.9969L501.15732 342.98126Q502.03232 342.5594 502.68857 341.98126Q503.36044 341.3875 503.6417 340.825L504.31357 340.825L504.31357 349.45ZM512.8136 342.96564L511.7667 343.04376Q511.62607 342.41876 511.37607 342.1375Q510.93857 341.6844 510.31357 341.6844Q509.81357 341.6844 509.42294 341.96564Q508.93857 342.34064 508.6417 343.04376Q508.36044 343.73126 508.34482 345.0125Q508.71982 344.4344 509.2667 344.15314Q509.8292 343.8719 510.43857 343.8719Q511.48544 343.8719 512.21985 344.65314Q512.96985 345.4344 512.96985 346.65314Q512.96985 347.46564 512.6105 348.16876Q512.2667 348.85626 511.65732 349.23126Q511.04794 349.59064 510.28232 349.59064Q508.9542 349.59064 508.12607 348.6219Q507.29794 347.65314 507.29794 345.4344Q507.29794 342.9344 508.21982 341.8094Q509.0167 340.825 510.37607 340.825Q511.3917 340.825 512.03235 341.40314Q512.6886 341.96564 512.8136 342.96564ZM508.5167 346.66876Q508.5167 347.21564 508.73544 347.71564Q508.96982 348.2 509.37607 348.46564Q509.79794 348.73126 510.2667 348.73126Q510.92294 348.73126 511.40732 348.2Q511.8917 347.65314 511.8917 346.73126Q511.8917 345.84064 511.40732 345.325Q510.93857 344.8094 510.21982 344.8094Q509.50107 344.8094 509.00107 345.325Q508.5167 345.84064 508.5167 346.66876ZM517.6261 342.09064L517.6261 340.85626L518.6886 340.85626L518.6886 342.09064L517.6261 342.09064ZM516.298 351.8719L516.4855 350.96564Q516.8136 351.04376 516.9855 351.04376Q517.3136 351.04376 517.46985 350.825Q517.6261 350.6219 517.6261 349.7625L517.6261 343.23126L518.6886 343.23126L518.6886 349.79376Q518.6886 350.9344 518.3917 351.3875Q518.0011 351.98126 517.1261 351.98126Q516.6886 351.98126 516.298 351.8719ZM520.2511 346.34064Q520.2511 344.60626 521.2042 343.77814Q522.0011 343.09064 523.15735 343.09064Q524.4386 343.09064 525.2511 343.9344Q526.0792 344.7625 526.0792 346.2469Q526.0792 347.45 525.71985 348.1375Q525.3605 348.825 524.65735 349.21564Q523.96985 349.59064 523.15735 349.59064Q521.8605 349.59064 521.048 348.7625Q520.2511 347.91876 520.2511 346.34064ZM521.3292 346.34064Q521.3292 347.52814 521.84485 348.1219Q522.3761 348.71564 523.15735 348.71564Q523.9542 348.71564 524.46985 348.1219Q524.9855 347.52814 524.9855 346.3094Q524.9855 345.15314 524.4542 344.5594Q523.9386 343.96564 523.15735 343.96564Q522.3761 343.96564 521.84485 344.5594Q521.3292 345.1375 521.3292 346.34064ZM528.6105 349.45L527.6261 349.45L527.6261 340.85626L528.6886 340.85626L528.6886 343.91876Q529.3605 343.09064 530.3917 343.09064Q530.96985 343.09064 531.46985 343.325Q531.9855 343.54376 532.3136 343.96564Q532.65735 344.3875 532.84485 344.98126Q533.03235 345.575 533.03235 346.2469Q533.03235 347.84064 532.2355 348.71564Q531.4386 349.59064 530.34485 349.59064Q529.2355 349.59064 528.6105 348.66876L528.6105 349.45ZM528.59485 346.29376Q528.59485 347.40314 528.90735 347.90314Q529.40735 348.71564 530.2511 348.71564Q530.9386 348.71564 531.4386 348.1219Q531.9542 347.52814 531.9542 346.325Q531.9542 345.10626 531.46985 344.52814Q530.9855 343.95 530.298 343.95Q529.6105 343.95 529.09485 344.5594Q528.59485 345.15314 528.59485 346.29376ZM534.21985 347.59064L535.2511 347.4344Q535.34485 348.0594 535.7355 348.3875Q536.1417 348.71564 536.8761 348.71564Q537.59485 348.71564 537.9386 348.4344Q538.298 348.1375 538.298 347.73126Q538.298 347.3719 537.9855 347.16876Q537.7667 347.02814 536.90735 346.8094Q535.7511 346.5125 535.298 346.3094Q534.8605 346.09064 534.6261 345.71564Q534.3917 345.34064 534.3917 344.8719Q534.3917 344.46564 534.5792 344.10626Q534.7667 343.7469 535.09485 343.5125Q535.34485 343.34064 535.7667 343.21564Q536.1886 343.09064 536.6886 343.09064Q537.40735 343.09064 537.9542 343.3094Q538.5167 343.5125 538.78235 343.8719Q539.048 344.23126 539.1417 344.825L538.1105 344.96564Q538.048 344.4969 537.7042 344.23126Q537.3761 343.95 536.7511 343.95Q536.03235 343.95 535.71985 344.2Q535.40735 344.4344 535.40735 344.7625Q535.40735 344.96564 535.53235 345.1219Q535.673 345.29376 535.9386 345.40314Q536.09485 345.46564 536.8761 345.66876Q538.0011 345.98126 538.4386 346.16876Q538.8761 346.35626 539.1261 346.71564Q539.3761 347.075 539.3761 347.6219Q539.3761 348.15314 539.0636 348.6219Q538.7667 349.075 538.1886 349.34064Q537.6105 349.59064 536.8761 349.59064Q535.65735 349.59064 535.0167 349.09064Q534.3917 348.575 534.21985 347.59064ZM541.3292 351.98126L540.5792 351.98126Q542.3292 349.16876 542.3292 346.34064Q542.3292 345.2469 542.0792 344.15314Q541.8761 343.27814 541.5167 342.46564Q541.28235 341.95 540.5792 340.71564L541.3292 340.71564Q542.423 342.1844 542.9542 343.66876Q543.40735 344.95 543.40735 346.34064Q543.40735 347.91876 542.798 349.40314Q542.1886 350.8719 541.3292 351.98126Z" fill-rule="nonzero"/><path fill="#4285f4" d="M205.5 56.916668C205.5 56.364384 205.94771 55.916668 206.5 55.916668L216.5 55.916668C217.05229 55.916668 217.5 56.364384 217.5 56.916668L217.5 66.916664C217.5 67.46895 217.05229 67.916664 216.5 67.916664L206.5 67.916664C205.94771 67.916664 205.5 67.46895 205.5 66.916664Z" fill-rule="nonzero"/><path fill="#1a1a1a" d="M226.04688 63.15104L227.10938 63.05729Q227.1875 63.71354 227.46875 64.11979Q227.75 64.52604 228.32812 64.791664Q228.92188 65.041664 229.65625 65.041664Q230.29688 65.041664 230.79688 64.854164Q231.29688 64.65104 231.53125 64.322914Q231.78125 63.979164 231.78125 63.58854Q231.78125 63.18229 231.54688 62.885414Q231.3125 62.572914 230.78125 62.36979Q230.42188 62.229164 229.23438 61.947914Q228.0625 61.666664 227.59375 61.416664Q226.96875 61.08854 226.67188 60.61979Q226.375 60.135414 226.375 59.541664Q226.375 58.90104 226.73438 58.33854Q227.10938 57.760414 227.8125 57.479164Q228.53125 57.18229 229.39062 57.18229Q230.34375 57.18229 231.07812 57.49479Q231.8125 57.791664 232.20312 58.40104Q232.59375 58.99479 232.625 59.74479L231.53125 59.822914Q231.4375 59.010414 230.92188 58.604164Q230.42188 58.18229 229.4375 58.18229Q228.40625 58.18229 227.9375 58.55729Q227.46875 58.93229 227.46875 59.46354Q227.46875 59.93229 227.79688 60.229164Q228.125 60.52604 229.5 60.83854Q230.89062 61.15104 231.40625 61.385414Q232.15625 61.74479 232.51562 62.27604Q232.875 62.791664 232.875 63.49479Q232.875 64.18229 232.48438 64.791664Q232.09375 65.385414 231.35938 65.729164Q230.625 66.05729 229.70312 66.05729Q228.53125 66.05729 227.73438 65.729164Q226.95312 65.385414 226.5 64.697914Q226.0625 64.010414 226.04688 63.15104ZM234.0 63.65104L235.0625 63.510414Q235.23438 64.40104 235.67188 64.80729Q236.10938 65.197914 236.73438 65.197914Q237.48438 65.197914 238.0 64.68229Q238.51562 64.166664 238.51562 63.40104Q238.51562 62.68229 238.03125 62.21354Q237.5625 61.729164 236.82812 61.729164Q236.53125 61.729164 236.07812 61.854164L236.20312 60.916664Q236.3125 60.93229 236.375 60.93229Q237.04688 60.93229 237.57812 60.58854Q238.125 60.229164 238.125 59.49479Q238.125 58.916664 237.73438 58.541664Q237.34375 58.15104 236.71875 58.15104Q236.10938 58.15104 235.6875 58.541664Q235.28125 58.93229 235.17188 59.697914L234.10938 59.510414Q234.29688 58.46354 234.98438 57.885414Q235.67188 57.291664 236.6875 57.291664Q237.39062 57.291664 237.98438 57.604164Q238.57812 57.90104 238.89062 58.416664Q239.20312 58.93229 239.20312 59.52604Q239.20312 60.072914 238.90625 60.541664Q238.60938 60.99479 238.03125 61.260414Q238.78125 61.43229 239.20312 61.99479Q239.625 62.541664 239.625 63.385414Q239.625 64.510414 238.79688 65.291664Q237.98438 66.072914 236.73438 66.072914Q235.60938 66.072914 234.85938 65.40104Q234.10938 64.71354 234.0 63.65104ZM241.48438 65.916664L241.48438 57.322914L247.28125 57.322914L247.28125 58.33854L242.625 58.33854L242.625 60.99479L246.65625 60.99479L246.65625 62.010414L242.625 62.010414L242.625 65.916664L241.48438 65.916664ZM248.04688 63.15104L249.10938 63.05729Q249.1875 63.71354 249.46875 64.11979Q249.75 64.52604 250.32812 64.791664Q250.92188 65.041664 251.65625 65.041664Q252.29688 65.041664 252.79688 64.854164Q253.29688 64.65104 253.53125 64.322914Q253.78125 63.979164 253.78125 63.58854Q253.78125 63.18229 253.54688 62.885414Q253.3125 62.572914 252.78125 62.36979Q252.42188 62.229164 251.23438 61.947914Q250.0625 61.666664 249.59375 61.416664Q248.96875 61.08854 248.67188 60.61979Q248.375 60.135414 248.375 59.541664Q248.375 58.90104 248.73438 58.33854Q249.10938 57.760414 249.8125 57.479164Q250.53125 57.18229 251.39062 57.18229Q252.34375 57.18229 253.07812 57.49479Q253.8125 57.791664 254.20312 58.40104Q254.59375 58.99479 254.625 59.74479L253.53125 59.822914Q253.4375 59.010414 252.92188 58.604164Q252.42188 58.18229 251.4375 58.18229Q250.40625 58.18229 249.9375 58.55729Q249.46875 58.93229 249.46875 59.46354Q249.46875 59.93229 249.79688 60.229164Q250.125 60.52604 251.5 60.83854Q252.89062 61.15104 253.40625 61.385414Q254.15625 61.74479 254.51562 62.27604Q254.875 62.791664 254.875 63.49479Q254.875 64.18229 254.48438 64.791664Q254.09375 65.385414 253.35938 65.729164Q252.625 66.05729 251.70312 66.05729Q250.53125 66.05729 249.73438 65.729164Q248.95312 65.385414 248.5 64.697914Q248.0625 64.010414 248.04688 63.15104Z" fill-rule="nonzero"/><path fill="#ff9900" d="M271.5 56.916668C271.5 56.364384 271.94772 55.916668 272.5 55.916668L282.5 55.916668C283.05228 55.916668 283.5 56.364384 283.5 56.916668L283.5 66.916664C283.5 67.46895 283.05228 67.916664 282.5 67.916664L272.5 67.916664C271.94772 67.916664 271.5 67.46895 271.5 66.916664Z" fill-rule="nonzero"/><path fill="#1a1a1a" d="M292.45312 65.916664L292.45312 57.322914L298.65625 57.322914L298.65625 58.33854L293.59375 58.33854L293.59375 60.96354L298.34375 60.96354L298.34375 61.979164L293.59375 61.979164L293.59375 64.90104L298.85938 64.90104L298.85938 65.916664L292.45312 65.916664ZM300.48438 65.916664L300.48438 57.322914L306.28125 57.322914L306.28125 58.33854L301.625 58.33854L301.625 60.99479L305.65625 60.99479L305.65625 62.010414L301.625 62.010414L301.625 65.916664L300.48438 65.916664ZM307.04688 63.15104L308.10938 63.05729Q308.1875 63.71354 308.46875 64.11979Q308.75 64.52604 309.32812 64.791664Q309.92188 65.041664 310.65625 65.041664Q311.29688 65.041664 311.79688 64.854164Q312.29688 64.65104 312.53125 64.322914Q312.78125 63.979164 312.78125 63.58854Q312.78125 63.18229 312.54688 62.885414Q312.3125 62.572914 311.78125 62.36979Q311.42188 62.229164 310.23438 61.947914Q309.0625 61.666664 308.59375 61.416664Q307.96875 61.08854 307.67188 60.61979Q307.375 60.135414 307.375 59.541664Q307.375 58.90104 307.73438 58.33854Q308.10938 57.760414 308.8125 57.479164Q309.53125 57.18229 310.39062 57.18229Q311.34375 57.18229 312.07812 57.49479Q312.8125 57.791664 313.20312 58.40104Q313.59375 58.99479 313.625 59.74479L312.53125 59.822914Q312.4375 59.010414 311.92188 58.604164Q311.42188 58.18229 310.4375 58.18229Q309.40625 58.18229 308.9375 58.55729Q308.46875 58.93229 308.46875 59.46354Q308.46875 59.93229 308.79688 60.229164Q309.125 60.52604 310.5 60.83854Q311.89062 61.15104 312.40625 61.385414Q313.15625 61.74479 313.51562 62.27604Q313.875 62.791664 313.875 63.49479Q313.875 64.18229 313.48438 64.791664Q313.09375 65.385414 312.35938 65.729164Q311.625 66.05729 310.70312 66.05729Q309.53125 66.05729 308.73438 65.729164Q307.95312 65.385414 307.5 64.697914Q307.0625 64.010414 307.04688 63.15104Z" fill-rule="nonzero"/><path fill="#93c47d" d="M330.5 56.916668C330.5 56.364384 330.94772 55.916668 331.5 55.916668L341.5 55.916668C342.05228 55.916668 342.5 56.364384 342.5 56.916668L342.5 66.916664C342.5 67.46895 342.05228 67.916664 341.5 67.916664L331.5 67.916664C330.94772 67.916664 330.5 67.46895 330.5 66.916664Z" fill-rule="nonzero"/><path fill="#1a1a1a" d="M350.84375 63.479164L351.875 63.33854Q351.90625 64.322914 352.23438 64.68229Q352.5625 65.041664 353.15625 65.041664Q353.57812 65.041664 353.89062 64.854164Q354.20312 64.65104 354.3125 64.322914Q354.4375 63.979164 354.4375 63.24479L354.4375 57.322914L355.5625 57.322914L355.5625 63.18229Q355.5625 64.260414 355.29688 64.854164Q355.04688 65.447914 354.48438 65.760414Q353.92188 66.05729 353.15625 66.05729Q352.03125 66.05729 351.42188 65.416664Q350.82812 64.760414 350.84375 63.479164ZM361.375 65.916664L361.375 64.99479Q360.64062 66.05729 359.39062 66.05729Q358.84375 66.05729 358.35938 65.854164Q357.89062 65.635414 357.65625 65.322914Q357.42188 64.99479 357.32812 64.52604Q357.26562 64.229164 357.26562 63.541664L357.26562 59.697914L358.32812 59.697914L358.32812 63.15104Q358.32812 63.96354 358.39062 64.260414Q358.48438 64.666664 358.79688 64.916664Q359.125 65.15104 359.60938 65.15104Q360.07812 65.15104 360.48438 64.916664Q360.90625 64.666664 361.07812 64.24479Q361.26562 63.822914 361.26562 63.02604L361.26562 59.697914L362.3125 59.697914L362.3125 65.916664L361.375 65.916664ZM364.29688 58.541664L364.29688 57.322914L365.35938 57.322914L365.35938 58.541664L364.29688 58.541664ZM364.29688 65.916664L364.29688 59.697914L365.35938 59.697914L365.35938 65.916664L364.29688 65.916664ZM371.35938 63.635414L372.39062 63.77604Q372.21875 64.83854 371.51562 65.447914Q370.8125 66.05729 369.79688 66.05729Q368.51562 66.05729 367.73438 65.229164Q366.96875 64.385414 366.96875 62.822914Q366.96875 61.822914 367.29688 61.072914Q367.64062 60.30729 368.3125 59.93229Q369.0 59.55729 369.8125 59.55729Q370.8125 59.55729 371.45312 60.072914Q372.10938 60.572914 372.29688 61.52604L371.26562 61.68229Q371.125 61.05729 370.75 60.74479Q370.375 60.416664 369.84375 60.416664Q369.04688 60.416664 368.54688 60.99479Q368.04688 61.55729 368.04688 62.791664Q368.04688 64.05729 368.53125 64.61979Q369.01562 65.18229 369.78125 65.18229Q370.40625 65.18229 370.8125 64.80729Q371.23438 64.43229 371.35938 63.635414ZM377.54688 63.916664L378.64062 64.041664Q378.39062 64.99479 377.6875 65.52604Q376.98438 66.05729 375.90625 66.05729Q374.54688 66.05729 373.73438 65.21354Q372.9375 64.36979 372.9375 62.854164Q372.9375 61.291664 373.75 60.43229Q374.5625 59.55729 375.84375 59.55729Q377.09375 59.55729 377.875 60.40104Q378.67188 61.24479 378.67188 62.791664Q378.67188 62.885414 378.67188 63.072914L374.03125 63.072914Q374.09375 64.104164 374.60938 64.65104Q375.125 65.18229 375.90625 65.18229Q376.48438 65.18229 376.89062 64.885414Q377.3125 64.572914 377.54688 63.916664ZM374.09375 62.21354L377.5625 62.21354Q377.5 61.416664 377.17188 61.02604Q376.65625 60.416664 375.85938 60.416664Q375.125 60.416664 374.625 60.90104Q374.14062 61.385414 374.09375 62.21354ZM380.48438 65.916664L380.48438 57.322914L386.28125 57.322914L386.28125 58.33854L381.625 58.33854L381.625 60.99479L385.65625 60.99479L385.65625 62.010414L381.625 62.010414L381.625 65.916664L380.48438 65.916664ZM387.04688 63.15104L388.10938 63.05729Q388.1875 63.71354 388.46875 64.11979Q388.75 64.52604 389.32812 64.791664Q389.92188 65.041664 390.65625 65.041664Q391.29688 65.041664 391.79688 64.854164Q392.29688 64.65104 392.53125 64.322914Q392.78125 63.979164 392.78125 63.58854Q392.78125 63.18229 392.54688 62.885414Q392.3125 62.572914 391.78125 62.36979Q391.42188 62.229164 390.23438 61.947914Q389.0625 61.666664 388.59375 61.416664Q387.96875 61.08854 387.67188 60.61979Q387.375 60.135414 387.375 59.541664Q387.375 58.90104 387.73438 58.33854Q388.10938 57.760414 388.8125 57.479164Q389.53125 57.18229 390.39062 57.18229Q391.34375 57.18229 392.07812 57.49479Q392.8125 57.791664 393.20312 58.40104Q393.59375 58.99479 393.625 59.74479L392.53125 59.822914Q392.4375 59.010414 391.92188 58.604164Q391.42188 58.18229 390.4375 58.18229Q389.40625 58.18229 388.9375 58.55729Q388.46875 58.93229 388.46875 59.46354Q388.46875 59.93229 388.79688 60.229164Q389.125 60.52604 390.5 60.83854Q391.89062 61.15104 392.40625 61.385414Q393.15625 61.74479 393.51562 62.27604Q393.875 62.791664 393.875 63.49479Q393.875 64.18229 393.48438 64.791664Q393.09375 65.385414 392.35938 65.729164Q391.625 66.05729 390.70312 66.05729Q389.53125 66.05729 388.73438 65.729164Q387.95312 65.385414 387.5 64.697914Q387.0625 64.010414 387.04688 63.15104Z" fill-rule="nonzero"/><path fill="#757575" d="M147.90625 32.95625L149.6875 32.8Q149.8125 33.8625 150.26562 34.55Q150.73438 35.2375 151.70312 35.675Q152.6875 36.096874 153.92188 36.096874Q155.0 36.096874 155.82812 35.784374Q156.65625 35.45625 157.0625 34.89375Q157.46875 34.33125 157.46875 33.659374Q157.46875 32.9875 157.07812 32.4875Q156.6875 31.9875 155.79688 31.64375Q155.21875 31.409374 153.23438 30.940624Q151.26562 30.471874 150.48438 30.05Q149.45312 29.51875 148.95312 28.721874Q148.45312 27.925 148.45312 26.940624Q148.45312 25.846874 149.0625 24.909374Q149.67188 23.971874 150.85938 23.4875Q152.04688 22.9875 153.48438 22.9875Q155.07812 22.9875 156.29688 23.503124Q157.51562 24.01875 158.15625 25.01875Q158.8125 26.003124 158.85938 27.26875L157.04688 27.409374Q156.90625 26.05 156.0625 25.3625Q155.21875 24.659374 153.5625 24.659374Q151.84375 24.659374 151.04688 25.3Q150.26562 25.925 150.26562 26.8Q150.26562 27.58125 150.82812 28.08125Q151.375 28.58125 153.6875 29.096874Q156.0 29.6125 156.85938 30.003124Q158.10938 30.58125 158.70312 31.471874Q159.29688 32.346874 159.29688 33.503124Q159.29688 34.64375 158.64062 35.659374Q157.98438 36.675 156.75 37.2375Q155.53125 37.8 154.0 37.8Q152.0625 37.8 150.75 37.2375Q149.4375 36.659374 148.6875 35.51875Q147.9375 34.378124 147.90625 32.95625ZM168.42188 34.20625L170.23438 34.440624Q169.8125 36.01875 168.64062 36.909374Q167.48438 37.784374 165.67188 37.784374Q163.40625 37.784374 162.0625 36.39375Q160.73438 34.9875 160.73438 32.45625Q160.73438 29.83125 162.07812 28.39375Q163.42188 26.940624 165.57812 26.940624Q167.65625 26.940624 168.96875 28.3625Q170.29688 29.76875 170.29688 32.346874Q170.29688 32.503124 170.28125 32.815624L162.54688 32.815624Q162.64062 34.51875 163.51562 35.425Q164.39062 36.33125 165.6875 36.33125Q166.65625 36.33125 167.32812 35.83125Q168.01562 35.315624 168.42188 34.20625ZM162.64062 31.3625L168.4375 31.3625Q168.32812 30.065624 167.78125 29.409374Q166.9375 28.39375 165.59375 28.39375Q164.39062 28.39375 163.5625 29.20625Q162.73438 30.003124 162.64062 31.3625ZM178.9375 41.51875L178.9375 36.440624Q178.51562 37.01875 177.78125 37.409374Q177.04688 37.784374 176.21875 37.784374Q174.375 37.784374 173.03125 36.315624Q171.70312 34.83125 171.70312 32.26875Q171.70312 30.70625 172.23438 29.471874Q172.78125 28.221874 173.8125 27.58125Q174.84375 26.940624 176.07812 26.940624Q178.0 26.940624 179.10938 28.565624L179.10938 27.175L180.6875 27.175L180.6875 41.51875L178.9375 41.51875ZM173.51562 32.33125Q173.51562 34.33125 174.34375 35.33125Q175.1875 36.33125 176.35938 36.33125Q177.48438 36.33125 178.29688 35.39375Q179.10938 34.440624 179.10938 32.4875Q179.10938 30.425 178.25 29.378124Q177.39062 28.33125 176.25 28.33125Q175.10938 28.33125 174.3125 29.3Q173.51562 30.26875 173.51562 32.33125ZM190.10938 37.55L190.10938 36.01875Q188.90625 37.784374 186.82812 37.784374Q185.90625 37.784374 185.10938 37.440624Q184.3125 37.08125 183.92188 36.55Q183.54688 36.01875 183.39062 35.2375Q183.28125 34.721874 183.28125 33.596874L183.28125 27.175L185.03125 27.175L185.03125 32.925Q185.03125 34.3 185.14062 34.784374Q185.3125 35.471874 185.84375 35.878124Q186.39062 36.26875 187.17188 36.26875Q187.96875 36.26875 188.65625 35.8625Q189.35938 35.45625 189.64062 34.76875Q189.9375 34.065624 189.9375 32.7375L189.9375 27.175L191.6875 27.175L191.6875 37.55L190.10938 37.55ZM201.42188 34.20625L203.23438 34.440624Q202.8125 36.01875 201.64062 36.909374Q200.48438 37.784374 198.67188 37.784374Q196.40625 37.784374 195.0625 36.39375Q193.73438 34.9875 193.73438 32.45625Q193.73438 29.83125 195.07812 28.39375Q196.42188 26.940624 198.57812 26.940624Q200.65625 26.940624 201.96875 28.3625Q203.29688 29.76875 203.29688 32.346874Q203.29688 32.503124 203.28125 32.815624L195.54688 32.815624Q195.64062 34.51875 196.51562 35.425Q197.39062 36.33125 198.6875 36.33125Q199.65625 36.33125 200.32812 35.83125Q201.01562 35.315624 201.42188 34.20625ZM195.64062 31.3625L201.4375 31.3625Q201.32812 30.065624 200.78125 29.409374Q199.9375 28.39375 198.59375 28.39375Q197.39062 28.39375 196.5625 29.20625Q195.73438 30.003124 195.64062 31.3625ZM205.3125 37.55L205.3125 27.175L206.90625 27.175L206.90625 28.659374Q208.04688 26.940624 210.20312 26.940624Q211.14062 26.940624 211.92188 27.284374Q212.71875 27.6125 213.10938 28.159374Q213.5 28.70625 213.65625 29.45625Q213.75 29.95625 213.75 31.175L213.75 37.55L211.98438 37.55L211.98438 31.2375Q211.98438 30.159374 211.78125 29.628124Q211.57812 29.096874 211.04688 28.784374Q210.53125 28.471874 209.82812 28.471874Q208.70312 28.471874 207.89062 29.190624Q207.07812 29.89375 207.07812 31.878124L207.07812 37.55L205.3125 37.55ZM220.15625 35.971874L220.40625 37.534374Q219.67188 37.690624 219.07812 37.690624Q218.125 37.690624 217.59375 37.39375Q217.07812 37.08125 216.85938 36.596874Q216.64062 36.096874 216.64062 34.51875L216.64062 28.55L215.35938 28.55L215.35938 27.175L216.64062 27.175L216.64062 24.6125L218.39062 23.55L218.39062 27.175L220.15625 27.175L220.15625 28.55L218.39062 28.55L218.39062 34.6125Q218.39062 35.3625 218.48438 35.58125Q218.57812 35.784374 218.78125 35.925Q219.0 36.05 219.39062 36.05Q219.67188 36.05 220.15625 35.971874ZM222.32812 25.253124L222.32812 23.2375L224.09375 23.2375L224.09375 25.253124L222.32812 25.253124ZM222.32812 37.55L222.32812 27.175L224.09375 27.175L224.09375 37.55L222.32812 37.55ZM233.09375 36.26875Q232.10938 37.096874 231.20312 37.440624Q230.29688 37.784374 229.26562 37.784374Q227.5625 37.784374 226.64062 36.95625Q225.71875 36.1125 225.71875 34.815624Q225.71875 34.05 226.0625 33.425Q226.42188 32.8 226.98438 32.425Q227.54688 32.034374 228.25 31.83125Q228.76562 31.70625 229.8125 31.565624Q231.9375 31.315624 232.9375 30.971874Q232.95312 30.6125 232.95312 30.503124Q232.95312 29.440624 232.45312 28.9875Q231.78125 28.39375 230.45312 28.39375Q229.20312 28.39375 228.60938 28.83125Q228.03125 29.26875 227.75 30.378124L226.03125 30.14375Q226.26562 29.034374 226.79688 28.3625Q227.32812 27.675 228.34375 27.315624Q229.35938 26.940624 230.70312 26.940624Q232.03125 26.940624 232.85938 27.253124Q233.6875 27.565624 234.07812 28.05Q234.46875 28.51875 234.625 29.2375Q234.71875 29.690624 234.71875 30.8625L234.71875 33.20625Q234.71875 35.659374 234.82812 36.315624Q234.9375 36.95625 235.28125 37.55L233.4375 37.55Q233.17188 37.003124 233.09375 36.26875ZM232.9375 32.346874Q231.98438 32.7375 230.0625 33.003124Q228.98438 33.159374 228.53125 33.3625Q228.09375 33.55 227.84375 33.925Q227.59375 34.3 227.59375 34.76875Q227.59375 35.471874 228.125 35.940624Q228.65625 36.409374 229.6875 36.409374Q230.70312 36.409374 231.48438 35.971874Q232.28125 35.51875 232.65625 34.753124Q232.9375 34.14375 232.9375 32.9875L232.9375 32.346874ZM237.28125 37.55L237.28125 23.2375L239.03125 23.2375L239.03125 37.55L237.28125 37.55ZM247.57812 37.55L247.57812 23.2375L253.92188 23.2375Q255.82812 23.2375 256.82812 23.628124Q257.82812 24.003124 258.42188 24.9875Q259.01562 25.95625 259.01562 27.14375Q259.01562 28.659374 258.03125 29.70625Q257.04688 30.753124 254.98438 31.034374Q255.73438 31.39375 256.125 31.753124Q256.95312 32.503124 257.70312 33.659374L260.1875 37.55L257.8125 37.55L255.90625 34.565624Q255.07812 33.284374 254.54688 32.596874Q254.01562 31.909374 253.57812 31.64375Q253.15625 31.3625 252.71875 31.253124Q252.39062 31.190624 251.67188 31.190624L249.46875 31.190624L249.46875 37.55L247.57812 37.55ZM249.46875 29.55L253.54688 29.55Q254.84375 29.55 255.5625 29.284374Q256.29688 29.01875 256.67188 28.425Q257.0625 27.83125 257.0625 27.14375Q257.0625 26.128124 256.32812 25.471874Q255.59375 24.815624 254.0 24.815624L249.46875 24.815624L249.46875 29.55ZM268.42188 34.20625L270.23438 34.440624Q269.8125 36.01875 268.64062 36.909374Q267.48438 37.784374 265.67188 37.784374Q263.40625 37.784374 262.0625 36.39375Q260.73438 34.9875 260.73438 32.45625Q260.73438 29.83125 262.07812 28.39375Q263.42188 26.940624 265.57812 26.940624Q267.65625 26.940624 268.96875 28.3625Q270.29688 29.76875 270.29688 32.346874Q270.29688 32.503124 270.28125 32.815624L262.54688 32.815624Q262.64062 34.51875 263.51562 35.425Q264.39062 36.33125 265.6875 36.33125Q266.65625 36.33125 267.32812 35.83125Q268.01562 35.315624 268.42188 34.20625ZM262.64062 31.3625L268.4375 31.3625Q268.32812 30.065624 267.78125 29.409374Q266.9375 28.39375 265.59375 28.39375Q264.39062 28.39375 263.5625 29.20625Q262.73438 30.003124 262.64062 31.3625ZM279.09375 36.26875Q278.10938 37.096874 277.20312 37.440624Q276.29688 37.784374 275.26562 37.784374Q273.5625 37.784374 272.64062 36.95625Q271.71875 36.1125 271.71875 34.815624Q271.71875 34.05 272.0625 33.425Q272.42188 32.8 272.98438 32.425Q273.54688 32.034374 274.25 31.83125Q274.76562 31.70625 275.8125 31.565624Q277.9375 31.315624 278.9375 30.971874Q278.95312 30.6125 278.95312 30.503124Q278.95312 29.440624 278.45312 28.9875Q277.78125 28.39375 276.45312 28.39375Q275.20312 28.39375 274.60938 28.83125Q274.03125 29.26875 273.75 30.378124L272.03125 30.14375Q272.26562 29.034374 272.79688 28.3625Q273.32812 27.675 274.34375 27.315624Q275.35938 26.940624 276.70312 26.940624Q278.03125 26.940624 278.85938 27.253124Q279.6875 27.565624 280.07812 28.05Q280.46875 28.51875 280.625 29.2375Q280.71875 29.690624 280.71875 30.8625L280.71875 33.20625Q280.71875 35.659374 280.82812 36.315624Q280.9375 36.95625 281.28125 37.55L279.4375 37.55Q279.17188 37.003124 279.09375 36.26875ZM278.9375 32.346874Q277.98438 32.7375 276.0625 33.003124Q274.98438 33.159374 274.53125 33.3625Q274.09375 33.55 273.84375 33.925Q273.59375 34.3 273.59375 34.76875Q273.59375 35.471874 274.125 35.940624Q274.65625 36.409374 275.6875 36.409374Q276.70312 36.409374 277.48438 35.971874Q278.28125 35.51875 278.65625 34.753124Q278.9375 34.14375 278.9375 32.9875L278.9375 32.346874ZM290.04688 37.55L290.04688 36.2375Q289.0625 37.784374 287.14062 37.784374Q285.90625 37.784374 284.85938 37.096874Q283.82812 36.409374 283.25 35.190624Q282.6875 33.971874 282.6875 32.378124Q282.6875 30.815624 283.20312 29.55Q283.71875 28.284374 284.75 27.6125Q285.79688 26.940624 287.0625 26.940624Q288.0 26.940624 288.73438 27.346874Q289.46875 27.7375 289.9375 28.3625L289.9375 23.2375L291.67188 23.2375L291.67188 37.55L290.04688 37.55ZM284.48438 32.378124Q284.48438 34.3625 285.32812 35.346874Q286.17188 36.33125 287.3125 36.33125Q288.46875 36.33125 289.26562 35.39375Q290.07812 34.45625 290.07812 32.51875Q290.07812 30.39375 289.25 29.39375Q288.4375 28.39375 287.23438 28.39375Q286.0625 28.39375 285.26562 29.3625Q284.48438 30.315624 284.48438 32.378124ZM293.0 37.8L297.15625 22.9875L298.5625 22.9875L294.42188 37.8L293.0 37.8ZM303.04688 37.55L299.25 23.2375L301.1875 23.2375L303.35938 32.6125Q303.71875 34.096874 303.96875 35.55Q304.51562 33.253124 304.60938 32.89375L307.34375 23.2375L309.625 23.2375L311.67188 30.471874Q312.45312 33.175 312.79688 35.55Q313.0625 34.190624 313.5 32.425L315.75 23.2375L317.65625 23.2375L313.73438 37.55L311.90625 37.55L308.89062 26.64375Q308.5 25.26875 308.4375 24.95625Q308.20312 25.940624 308.01562 26.64375L304.98438 37.55L303.04688 37.55ZM319.29688 37.55L319.29688 27.175L320.875 27.175L320.875 28.753124Q321.48438 27.64375 322.0 27.3Q322.51562 26.940624 323.125 26.940624Q324.01562 26.940624 324.9375 27.503124L324.32812 29.14375Q323.6875 28.753124 323.04688 28.753124Q322.46875 28.753124 322.0 29.1125Q321.54688 29.45625 321.34375 30.065624Q321.0625 31.003124 321.0625 32.1125L321.0625 37.55L319.29688 37.55ZM326.32812 25.253124L326.32812 23.2375L328.09375 23.2375L328.09375 25.253124L326.32812 25.253124ZM326.32812 37.55L326.32812 27.175L328.09375 27.175L328.09375 37.55L326.32812 37.55ZM334.15625 35.971874L334.40625 37.534374Q333.67188 37.690624 333.07812 37.690624Q332.125 37.690624 331.59375 37.39375Q331.07812 37.08125 330.85938 36.596874Q330.64062 36.096874 330.64062 34.51875L330.64062 28.55L329.35938 28.55L329.35938 27.175L330.64062 27.175L330.64062 24.6125L332.39062 23.55L332.39062 27.175L334.15625 27.175L334.15625 28.55L332.39062 28.55L332.39062 34.6125Q332.39062 35.3625 332.48438 35.58125Q332.57812 35.784374 332.78125 35.925Q333.0 36.05 333.39062 36.05Q333.67188 36.05 334.15625 35.971874ZM343.42188 34.20625L345.23438 34.440624Q344.8125 36.01875 343.64062 36.909374Q342.48438 37.784374 340.67188 37.784374Q338.40625 37.784374 337.0625 36.39375Q335.73438 34.9875 335.73438 32.45625Q335.73438 29.83125 337.07812 28.39375Q338.42188 26.940624 340.57812 26.940624Q342.65625 26.940624 343.96875 28.3625Q345.29688 29.76875 345.29688 32.346874Q345.29688 32.503124 345.28125 32.815624L337.54688 32.815624Q337.64062 34.51875 338.51562 35.425Q339.39062 36.33125 340.6875 36.33125Q341.65625 36.33125 342.32812 35.83125Q343.01562 35.315624 343.42188 34.20625ZM337.64062 31.3625L343.4375 31.3625Q343.32812 30.065624 342.78125 29.409374Q341.9375 28.39375 340.59375 28.39375Q339.39062 28.39375 338.5625 29.20625Q337.73438 30.003124 337.64062 31.3625ZM353.46875 37.55L353.46875 23.2375L358.84375 23.2375Q360.48438 23.2375 361.46875 23.675Q362.45312 24.096874 363.01562 25.003124Q363.57812 25.909374 363.57812 26.89375Q363.57812 27.815624 363.07812 28.628124Q362.59375 29.440624 361.57812 29.925Q362.875 30.315624 363.57812 31.2375Q364.28125 32.14375 364.28125 33.39375Q364.28125 34.409374 363.84375 35.26875Q363.42188 36.128124 362.79688 36.596874Q362.17188 37.065624 361.23438 37.315624Q360.29688 37.55 358.92188 37.55L353.46875 37.55ZM355.35938 29.253124L358.45312 29.253124Q359.71875 29.253124 360.26562 29.08125Q360.98438 28.8625 361.34375 28.378124Q361.71875 27.878124 361.71875 27.1125Q361.71875 26.409374 361.375 25.8625Q361.03125 25.315624 360.39062 25.128124Q359.76562 24.925 358.21875 24.925L355.35938 24.925L355.35938 29.253124ZM355.35938 35.8625L358.92188 35.8625Q359.84375 35.8625 360.21875 35.784374Q360.875 35.675 361.3125 35.409374Q361.75 35.128124 362.03125 34.6125Q362.3125 34.08125 362.3125 33.39375Q362.3125 32.596874 361.90625 32.003124Q361.5 31.409374 360.76562 31.175Q360.03125 30.940624 358.67188 30.940624L355.35938 30.940624L355.35938 35.8625ZM373.42188 34.20625L375.23438 34.440624Q374.8125 36.01875 373.64062 36.909374Q372.48438 37.784374 370.67188 37.784374Q368.40625 37.784374 367.0625 36.39375Q365.73438 34.9875 365.73438 32.45625Q365.73438 29.83125 367.07812 28.39375Q368.42188 26.940624 370.57812 26.940624Q372.65625 26.940624 373.96875 28.3625Q375.29688 29.76875 375.29688 32.346874Q375.29688 32.503124 375.28125 32.815624L367.54688 32.815624Q367.64062 34.51875 368.51562 35.425Q369.39062 36.33125 370.6875 36.33125Q371.65625 36.33125 372.32812 35.83125Q373.01562 35.315624 373.42188 34.20625ZM367.64062 31.3625L373.4375 31.3625Q373.32812 30.065624 372.78125 29.409374Q371.9375 28.39375 370.59375 28.39375Q369.39062 28.39375 368.5625 29.20625Q367.73438 30.003124 367.64062 31.3625ZM377.3125 37.55L377.3125 27.175L378.90625 27.175L378.90625 28.659374Q380.04688 26.940624 382.20312 26.940624Q383.14062 26.940624 383.92188 27.284374Q384.71875 27.6125 385.10938 28.159374Q385.5 28.70625 385.65625 29.45625Q385.75 29.95625 385.75 31.175L385.75 37.55L383.98438 37.55L383.98438 31.2375Q383.98438 30.159374 383.78125 29.628124Q383.57812 29.096874 383.04688 28.784374Q382.53125 28.471874 381.82812 28.471874Q380.70312 28.471874 379.89062 29.190624Q379.07812 29.89375 379.07812 31.878124L379.07812 37.55L377.3125 37.55ZM395.09375 33.753124L396.8125 33.971874Q396.53125 35.76875 395.35938 36.784374Q394.20312 37.784374 392.5 37.784374Q390.375 37.784374 389.07812 36.39375Q387.78125 35.003124 387.78125 32.409374Q387.78125 30.721874 388.32812 29.471874Q388.89062 28.20625 390.03125 27.58125Q391.17188 26.940624 392.51562 26.940624Q394.20312 26.940624 395.26562 27.8Q396.34375 28.659374 396.65625 30.221874L394.9375 30.4875Q394.70312 29.440624 394.07812 28.925Q393.45312 28.39375 392.57812 28.39375Q391.25 28.39375 390.42188 29.346874Q389.59375 30.3 389.59375 32.346874Q389.59375 34.440624 390.39062 35.39375Q391.1875 36.33125 392.48438 36.33125Q393.51562 36.33125 394.20312 35.70625Q394.90625 35.065624 395.09375 33.753124ZM398.3125 37.55L398.3125 23.2375L400.07812 23.2375L400.07812 28.3625Q401.3125 26.940624 403.1875 26.940624Q404.32812 26.940624 405.17188 27.39375Q406.03125 27.846874 406.39062 28.659374Q406.76562 29.45625 406.76562 30.971874L406.76562 37.55L405.01562 37.55L405.01562 30.971874Q405.01562 29.659374 404.4375 29.065624Q403.85938 28.45625 402.82812 28.45625Q402.04688 28.45625 401.34375 28.8625Q400.65625 29.26875 400.35938 29.971874Q400.07812 30.659374 400.07812 31.878124L400.07812 37.55L398.3125 37.55ZM409.3125 37.55L409.3125 27.175L410.89062 27.175L410.89062 28.628124Q411.375 27.878124 412.1875 27.409374Q413.0 26.940624 414.03125 26.940624Q415.1875 26.940624 415.92188 27.425Q416.65625 27.89375 416.96875 28.753124Q418.20312 26.940624 420.17188 26.940624Q421.71875 26.940624 422.54688 27.8Q423.375 28.659374 423.375 30.425L423.375 37.55L421.625 37.55L421.625 31.01875Q421.625 29.95625 421.45312 29.503124Q421.28125 29.034374 420.82812 28.753124Q420.39062 28.471874 419.78125 28.471874Q418.6875 28.471874 417.95312 29.20625Q417.23438 29.925 417.23438 31.51875L417.23438 37.55L415.48438 37.55L415.48438 30.815624Q415.48438 29.64375 415.04688 29.065624Q414.625 28.471874 413.64062 28.471874Q412.90625 28.471874 412.26562 28.8625Q411.64062 29.253124 411.35938 30.003124Q411.07812 30.753124 411.07812 32.175L411.07812 37.55L409.3125 37.55ZM433.09375 36.26875Q432.10938 37.096874 431.20312 37.440624Q430.29688 37.784374 429.26562 37.784374Q427.5625 37.784374 426.64062 36.95625Q425.71875 36.1125 425.71875 34.815624Q425.71875 34.05 426.0625 33.425Q426.42188 32.8 426.98438 32.425Q427.54688 32.034374 428.25 31.83125Q428.76562 31.70625 429.8125 31.565624Q431.9375 31.315624 432.9375 30.971874Q432.95312 30.6125 432.95312 30.503124Q432.95312 29.440624 432.45312 28.9875Q431.78125 28.39375 430.45312 28.39375Q429.20312 28.39375 428.60938 28.83125Q428.03125 29.26875 427.75 30.378124L426.03125 30.14375Q426.26562 29.034374 426.79688 28.3625Q427.32812 27.675 428.34375 27.315624Q429.35938 26.940624 430.70312 26.940624Q432.03125 26.940624 432.85938 27.253124Q433.6875 27.565624 434.07812 28.05Q434.46875 28.51875 434.625 29.2375Q434.71875 29.690624 434.71875 30.8625L434.71875 33.20625Q434.71875 35.659374 434.82812 36.315624Q434.9375 36.95625 435.28125 37.55L433.4375 37.55Q433.17188 37.003124 433.09375 36.26875ZM432.9375 32.346874Q431.98438 32.7375 430.0625 33.003124Q428.98438 33.159374 428.53125 33.3625Q428.09375 33.55 427.84375 33.925Q427.59375 34.3 427.59375 34.76875Q427.59375 35.471874 428.125 35.940624Q428.65625 36.409374 429.6875 36.409374Q430.70312 36.409374 431.48438 35.971874Q432.28125 35.51875 432.65625 34.753124Q432.9375 34.14375 432.9375 32.9875L432.9375 32.346874ZM437.29688 37.55L437.29688 27.175L438.875 27.175L438.875 28.753124Q439.48438 27.64375 440.0 27.3Q440.51562 26.940624 441.125 26.940624Q442.01562 26.940624 442.9375 27.503124L442.32812 29.14375Q441.6875 28.753124 441.04688 28.753124Q440.46875 28.753124 440.0 29.1125Q439.54688 29.45625 439.34375 30.065624Q439.0625 31.003124 439.0625 32.1125L439.0625 37.55L437.29688 37.55ZM444.32812 37.55L444.32812 23.2375L446.09375 23.2375L446.09375 31.39375L450.25 27.175L452.51562 27.175L448.5625 31.01875L452.92188 37.55L450.75 37.55L447.32812 32.253124L446.09375 33.440624L446.09375 37.55L444.32812 37.55Z" fill-rule="nonzero"/></svg>